<mxfile host="app.diagrams.net" modified="2024-06-03T00:04:51.305Z" agent="Mozilla/5.0 (Windows NT 10.0; Win64; x64) AppleWebKit/537.36 (KHTML, like Gecko) Chrome/125.0.0.0 Safari/537.36 Edg/125.0.0.0" etag="PnoHp2UmKrsUM4xHn7ya" version="24.4.13" type="github">
  <diagram name="Страница — 1" id="Krd2mW4A0nsuQYRajcM5">
    <mxGraphModel dx="946" dy="536" grid="1" gridSize="10" guides="1" tooltips="1" connect="1" arrows="1" fold="1" page="1" pageScale="1" pageWidth="827" pageHeight="1169" math="0" shadow="0">
      <root>
        <mxCell id="0" />
        <mxCell id="1" parent="0" />
        <mxCell id="ywr4OouwpL6C_haG93kZ-148" value="" style="endArrow=none;dashed=1;html=1;rounded=0;" parent="1" edge="1">
          <mxGeometry width="50" height="50" relative="1" as="geometry">
            <mxPoint x="40" y="360" as="sourcePoint" />
            <mxPoint x="280" y="360" as="targetPoint" />
          </mxGeometry>
        </mxCell>
        <mxCell id="ywr4OouwpL6C_haG93kZ-149" value="" style="endArrow=none;dashed=1;html=1;rounded=0;" parent="1" edge="1">
          <mxGeometry width="50" height="50" relative="1" as="geometry">
            <mxPoint x="30" y="520" as="sourcePoint" />
            <mxPoint x="30" y="360" as="targetPoint" />
          </mxGeometry>
        </mxCell>
        <mxCell id="ywr4OouwpL6C_haG93kZ-150" value="" style="endArrow=none;dashed=1;html=1;rounded=0;" parent="1" edge="1">
          <mxGeometry width="50" height="50" relative="1" as="geometry">
            <mxPoint x="40" y="520" as="sourcePoint" />
            <mxPoint x="440" y="520" as="targetPoint" />
          </mxGeometry>
        </mxCell>
        <mxCell id="ywr4OouwpL6C_haG93kZ-152" value="" style="endArrow=none;dashed=1;html=1;rounded=0;" parent="1" edge="1">
          <mxGeometry width="50" height="50" relative="1" as="geometry">
            <mxPoint x="280" y="360" as="sourcePoint" />
            <mxPoint x="440" y="360" as="targetPoint" />
          </mxGeometry>
        </mxCell>
        <mxCell id="ywr4OouwpL6C_haG93kZ-153" value="&lt;font style=&quot;font-size: 18px;&quot; face=&quot;Times New Roman&quot;&gt;ОА&lt;/font&gt;" style="text;html=1;align=center;verticalAlign=middle;whiteSpace=wrap;rounded=0;" parent="1" vertex="1">
          <mxGeometry x="270" y="420" width="60" height="30" as="geometry" />
        </mxCell>
        <mxCell id="ywr4OouwpL6C_haG93kZ-154" value="" style="endArrow=classic;html=1;rounded=0;" parent="1" edge="1">
          <mxGeometry width="50" height="50" relative="1" as="geometry">
            <mxPoint x="40" y="630" as="sourcePoint" />
            <mxPoint x="40" y="500" as="targetPoint" />
          </mxGeometry>
        </mxCell>
        <mxCell id="ywr4OouwpL6C_haG93kZ-155" value="&lt;font face=&quot;Times New Roman&quot;&gt;y3&lt;/font&gt;" style="text;html=1;align=center;verticalAlign=middle;whiteSpace=wrap;rounded=0;" parent="1" vertex="1">
          <mxGeometry x="10" y="470" width="60" height="30" as="geometry" />
        </mxCell>
        <mxCell id="ywr4OouwpL6C_haG93kZ-156" value="" style="endArrow=classic;html=1;rounded=0;" parent="1" edge="1">
          <mxGeometry width="50" height="50" relative="1" as="geometry">
            <mxPoint x="60" y="630" as="sourcePoint" />
            <mxPoint x="60" y="500" as="targetPoint" />
          </mxGeometry>
        </mxCell>
        <mxCell id="ywr4OouwpL6C_haG93kZ-157" value="&lt;font face=&quot;Times New Roman&quot;&gt;y4&lt;/font&gt;" style="text;html=1;align=center;verticalAlign=middle;whiteSpace=wrap;rounded=0;" parent="1" vertex="1">
          <mxGeometry x="30" y="470" width="60" height="30" as="geometry" />
        </mxCell>
        <mxCell id="ywr4OouwpL6C_haG93kZ-158" value="" style="endArrow=classic;html=1;rounded=0;" parent="1" edge="1">
          <mxGeometry width="50" height="50" relative="1" as="geometry">
            <mxPoint x="80" y="630" as="sourcePoint" />
            <mxPoint x="80" y="500" as="targetPoint" />
          </mxGeometry>
        </mxCell>
        <mxCell id="ywr4OouwpL6C_haG93kZ-159" value="&lt;font face=&quot;Times New Roman&quot;&gt;y5&lt;/font&gt;" style="text;html=1;align=center;verticalAlign=middle;whiteSpace=wrap;rounded=0;" parent="1" vertex="1">
          <mxGeometry x="50" y="470" width="60" height="30" as="geometry" />
        </mxCell>
        <mxCell id="ywr4OouwpL6C_haG93kZ-160" value="" style="endArrow=classic;html=1;rounded=0;" parent="1" edge="1">
          <mxGeometry width="50" height="50" relative="1" as="geometry">
            <mxPoint x="100" y="630" as="sourcePoint" />
            <mxPoint x="100" y="500" as="targetPoint" />
          </mxGeometry>
        </mxCell>
        <mxCell id="ywr4OouwpL6C_haG93kZ-161" value="&lt;font face=&quot;Times New Roman&quot;&gt;y8&lt;/font&gt;" style="text;html=1;align=center;verticalAlign=middle;whiteSpace=wrap;rounded=0;" parent="1" vertex="1">
          <mxGeometry x="70" y="470" width="60" height="30" as="geometry" />
        </mxCell>
        <mxCell id="ywr4OouwpL6C_haG93kZ-162" value="" style="endArrow=classic;html=1;rounded=0;" parent="1" edge="1">
          <mxGeometry width="50" height="50" relative="1" as="geometry">
            <mxPoint x="120" y="630" as="sourcePoint" />
            <mxPoint x="120" y="500" as="targetPoint" />
          </mxGeometry>
        </mxCell>
        <mxCell id="ywr4OouwpL6C_haG93kZ-163" value="&lt;font face=&quot;Times New Roman&quot;&gt;y9&lt;/font&gt;" style="text;html=1;align=center;verticalAlign=middle;whiteSpace=wrap;rounded=0;" parent="1" vertex="1">
          <mxGeometry x="90" y="470" width="60" height="30" as="geometry" />
        </mxCell>
        <mxCell id="ywr4OouwpL6C_haG93kZ-164" value="" style="endArrow=classic;html=1;rounded=0;" parent="1" edge="1">
          <mxGeometry width="50" height="50" relative="1" as="geometry">
            <mxPoint x="160" y="630" as="sourcePoint" />
            <mxPoint x="160" y="500" as="targetPoint" />
          </mxGeometry>
        </mxCell>
        <mxCell id="ywr4OouwpL6C_haG93kZ-165" value="&lt;font face=&quot;Times New Roman&quot;&gt;y6&lt;/font&gt;" style="text;html=1;align=center;verticalAlign=middle;whiteSpace=wrap;rounded=0;" parent="1" vertex="1">
          <mxGeometry x="130" y="470" width="60" height="30" as="geometry" />
        </mxCell>
        <mxCell id="ywr4OouwpL6C_haG93kZ-166" value="" style="endArrow=classic;html=1;rounded=0;" parent="1" edge="1">
          <mxGeometry width="50" height="50" relative="1" as="geometry">
            <mxPoint x="180" y="630" as="sourcePoint" />
            <mxPoint x="180" y="500" as="targetPoint" />
          </mxGeometry>
        </mxCell>
        <mxCell id="ywr4OouwpL6C_haG93kZ-167" value="&lt;font face=&quot;Times New Roman&quot;&gt;y7&lt;/font&gt;" style="text;html=1;align=center;verticalAlign=middle;whiteSpace=wrap;rounded=0;" parent="1" vertex="1">
          <mxGeometry x="150" y="470" width="60" height="30" as="geometry" />
        </mxCell>
        <mxCell id="ywr4OouwpL6C_haG93kZ-168" value="" style="endArrow=classic;html=1;rounded=0;" parent="1" edge="1">
          <mxGeometry width="50" height="50" relative="1" as="geometry">
            <mxPoint x="199.62" y="630" as="sourcePoint" />
            <mxPoint x="199.62" y="500" as="targetPoint" />
          </mxGeometry>
        </mxCell>
        <mxCell id="ywr4OouwpL6C_haG93kZ-169" value="&lt;font face=&quot;Times New Roman&quot;&gt;y12&lt;/font&gt;" style="text;html=1;align=center;verticalAlign=middle;whiteSpace=wrap;rounded=0;" parent="1" vertex="1">
          <mxGeometry x="170" y="470" width="60" height="30" as="geometry" />
        </mxCell>
        <mxCell id="ywr4OouwpL6C_haG93kZ-170" value="" style="endArrow=classic;html=1;rounded=0;" parent="1" edge="1">
          <mxGeometry width="50" height="50" relative="1" as="geometry">
            <mxPoint x="220" y="630" as="sourcePoint" />
            <mxPoint x="220" y="500" as="targetPoint" />
          </mxGeometry>
        </mxCell>
        <mxCell id="ywr4OouwpL6C_haG93kZ-171" value="&lt;font face=&quot;Times New Roman&quot;&gt;y20&lt;/font&gt;" style="text;html=1;align=center;verticalAlign=middle;whiteSpace=wrap;rounded=0;" parent="1" vertex="1">
          <mxGeometry x="210" y="470" width="60" height="30" as="geometry" />
        </mxCell>
        <mxCell id="ywr4OouwpL6C_haG93kZ-172" value="" style="endArrow=classic;html=1;rounded=0;" parent="1" edge="1">
          <mxGeometry width="50" height="50" relative="1" as="geometry">
            <mxPoint x="240" y="630" as="sourcePoint" />
            <mxPoint x="240" y="500" as="targetPoint" />
          </mxGeometry>
        </mxCell>
        <mxCell id="ywr4OouwpL6C_haG93kZ-173" value="&lt;font face=&quot;Times New Roman&quot;&gt;y21&lt;/font&gt;" style="text;html=1;align=center;verticalAlign=middle;whiteSpace=wrap;rounded=0;" parent="1" vertex="1">
          <mxGeometry x="230" y="470" width="60" height="30" as="geometry" />
        </mxCell>
        <mxCell id="ywr4OouwpL6C_haG93kZ-174" value="" style="endArrow=classic;html=1;rounded=0;" parent="1" edge="1">
          <mxGeometry width="50" height="50" relative="1" as="geometry">
            <mxPoint x="260" y="630" as="sourcePoint" />
            <mxPoint x="260" y="500" as="targetPoint" />
          </mxGeometry>
        </mxCell>
        <mxCell id="ywr4OouwpL6C_haG93kZ-175" value="&lt;font face=&quot;Times New Roman&quot;&gt;y22&lt;/font&gt;" style="text;html=1;align=center;verticalAlign=middle;whiteSpace=wrap;rounded=0;" parent="1" vertex="1">
          <mxGeometry x="250" y="470" width="60" height="30" as="geometry" />
        </mxCell>
        <mxCell id="ywr4OouwpL6C_haG93kZ-176" value="" style="endArrow=classic;html=1;rounded=0;" parent="1" edge="1">
          <mxGeometry width="50" height="50" relative="1" as="geometry">
            <mxPoint x="299.63" y="630" as="sourcePoint" />
            <mxPoint x="299.63" y="500" as="targetPoint" />
          </mxGeometry>
        </mxCell>
        <mxCell id="ywr4OouwpL6C_haG93kZ-177" value="&lt;font face=&quot;Times New Roman&quot;&gt;y14&lt;/font&gt;" style="text;html=1;align=center;verticalAlign=middle;whiteSpace=wrap;rounded=0;" parent="1" vertex="1">
          <mxGeometry x="270" y="470" width="60" height="30" as="geometry" />
        </mxCell>
        <mxCell id="ywr4OouwpL6C_haG93kZ-178" value="" style="endArrow=classic;html=1;rounded=0;" parent="1" edge="1">
          <mxGeometry width="50" height="50" relative="1" as="geometry">
            <mxPoint x="320" y="630" as="sourcePoint" />
            <mxPoint x="320" y="500" as="targetPoint" />
          </mxGeometry>
        </mxCell>
        <mxCell id="ywr4OouwpL6C_haG93kZ-179" value="&lt;font face=&quot;Times New Roman&quot;&gt;y15&lt;/font&gt;" style="text;html=1;align=center;verticalAlign=middle;whiteSpace=wrap;rounded=0;" parent="1" vertex="1">
          <mxGeometry x="290" y="470" width="60" height="30" as="geometry" />
        </mxCell>
        <mxCell id="ywr4OouwpL6C_haG93kZ-180" value="" style="endArrow=classic;html=1;rounded=0;" parent="1" target="ywr4OouwpL6C_haG93kZ-181" edge="1">
          <mxGeometry width="50" height="50" relative="1" as="geometry">
            <mxPoint x="340" y="630" as="sourcePoint" />
            <mxPoint x="340" y="500" as="targetPoint" />
          </mxGeometry>
        </mxCell>
        <mxCell id="ywr4OouwpL6C_haG93kZ-181" value="&lt;font face=&quot;Times New Roman&quot;&gt;y16&lt;/font&gt;" style="text;html=1;align=center;verticalAlign=middle;whiteSpace=wrap;rounded=0;" parent="1" vertex="1">
          <mxGeometry x="310" y="470" width="60" height="30" as="geometry" />
        </mxCell>
        <mxCell id="ywr4OouwpL6C_haG93kZ-182" value="" style="endArrow=classic;html=1;rounded=0;" parent="1" target="ywr4OouwpL6C_haG93kZ-183" edge="1">
          <mxGeometry width="50" height="50" relative="1" as="geometry">
            <mxPoint x="360" y="630" as="sourcePoint" />
            <mxPoint x="360" y="500" as="targetPoint" />
          </mxGeometry>
        </mxCell>
        <mxCell id="ywr4OouwpL6C_haG93kZ-183" value="&lt;font face=&quot;Times New Roman&quot;&gt;y17&lt;/font&gt;" style="text;html=1;align=center;verticalAlign=middle;whiteSpace=wrap;rounded=0;" parent="1" vertex="1">
          <mxGeometry x="330" y="470" width="60" height="30" as="geometry" />
        </mxCell>
        <mxCell id="ywr4OouwpL6C_haG93kZ-184" value="" style="endArrow=classic;html=1;rounded=0;" parent="1" target="ywr4OouwpL6C_haG93kZ-185" edge="1">
          <mxGeometry width="50" height="50" relative="1" as="geometry">
            <mxPoint x="380" y="630" as="sourcePoint" />
            <mxPoint x="380" y="500" as="targetPoint" />
          </mxGeometry>
        </mxCell>
        <mxCell id="ywr4OouwpL6C_haG93kZ-185" value="&lt;font face=&quot;Times New Roman&quot;&gt;y18&lt;/font&gt;" style="text;html=1;align=center;verticalAlign=middle;whiteSpace=wrap;rounded=0;" parent="1" vertex="1">
          <mxGeometry x="350" y="470" width="60" height="30" as="geometry" />
        </mxCell>
        <mxCell id="ywr4OouwpL6C_haG93kZ-186" value="" style="endArrow=classic;html=1;rounded=0;" parent="1" target="ywr4OouwpL6C_haG93kZ-187" edge="1">
          <mxGeometry width="50" height="50" relative="1" as="geometry">
            <mxPoint x="400" y="630" as="sourcePoint" />
            <mxPoint x="400" y="500" as="targetPoint" />
          </mxGeometry>
        </mxCell>
        <mxCell id="ywr4OouwpL6C_haG93kZ-187" value="&lt;font face=&quot;Times New Roman&quot;&gt;y19&lt;/font&gt;" style="text;html=1;align=center;verticalAlign=middle;whiteSpace=wrap;rounded=0;" parent="1" vertex="1">
          <mxGeometry x="370" y="470" width="60" height="30" as="geometry" />
        </mxCell>
        <mxCell id="ywr4OouwpL6C_haG93kZ-189" value="" style="endArrow=classic;html=1;rounded=0;" parent="1" edge="1">
          <mxGeometry width="50" height="50" relative="1" as="geometry">
            <mxPoint x="429.63" y="630" as="sourcePoint" />
            <mxPoint x="429.63" y="500" as="targetPoint" />
          </mxGeometry>
        </mxCell>
        <mxCell id="ywr4OouwpL6C_haG93kZ-190" value="&lt;font face=&quot;Times New Roman&quot;&gt;y1&lt;/font&gt;" style="text;html=1;align=center;verticalAlign=middle;whiteSpace=wrap;rounded=0;" parent="1" vertex="1">
          <mxGeometry x="400" y="470" width="60" height="30" as="geometry" />
        </mxCell>
        <mxCell id="ywr4OouwpL6C_haG93kZ-191" value="" style="endArrow=classic;html=1;rounded=0;" parent="1" edge="1">
          <mxGeometry width="50" height="50" relative="1" as="geometry">
            <mxPoint x="450" y="630" as="sourcePoint" />
            <mxPoint x="450" y="500" as="targetPoint" />
          </mxGeometry>
        </mxCell>
        <mxCell id="ywr4OouwpL6C_haG93kZ-192" value="&lt;font face=&quot;Times New Roman&quot;&gt;y2&lt;/font&gt;" style="text;html=1;align=center;verticalAlign=middle;whiteSpace=wrap;rounded=0;" parent="1" vertex="1">
          <mxGeometry x="420" y="470" width="60" height="30" as="geometry" />
        </mxCell>
        <mxCell id="ywr4OouwpL6C_haG93kZ-193" value="" style="endArrow=classic;html=1;rounded=0;" parent="1" target="ywr4OouwpL6C_haG93kZ-194" edge="1">
          <mxGeometry width="50" height="50" relative="1" as="geometry">
            <mxPoint x="470" y="630" as="sourcePoint" />
            <mxPoint x="470" y="500" as="targetPoint" />
          </mxGeometry>
        </mxCell>
        <mxCell id="ywr4OouwpL6C_haG93kZ-194" value="&lt;font face=&quot;Times New Roman&quot;&gt;y10&lt;/font&gt;" style="text;html=1;align=center;verticalAlign=middle;whiteSpace=wrap;rounded=0;" parent="1" vertex="1">
          <mxGeometry x="440" y="470" width="60" height="30" as="geometry" />
        </mxCell>
        <mxCell id="ywr4OouwpL6C_haG93kZ-195" value="" style="endArrow=classic;html=1;rounded=0;" parent="1" target="ywr4OouwpL6C_haG93kZ-196" edge="1">
          <mxGeometry width="50" height="50" relative="1" as="geometry">
            <mxPoint x="490" y="630" as="sourcePoint" />
            <mxPoint x="490" y="500" as="targetPoint" />
          </mxGeometry>
        </mxCell>
        <mxCell id="ywr4OouwpL6C_haG93kZ-196" value="&lt;font face=&quot;Times New Roman&quot;&gt;y11&lt;/font&gt;" style="text;html=1;align=center;verticalAlign=middle;whiteSpace=wrap;rounded=0;" parent="1" vertex="1">
          <mxGeometry x="460" y="470" width="60" height="30" as="geometry" />
        </mxCell>
        <mxCell id="ywr4OouwpL6C_haG93kZ-197" value="" style="endArrow=classic;html=1;rounded=0;" parent="1" edge="1">
          <mxGeometry width="50" height="50" relative="1" as="geometry">
            <mxPoint x="510" y="630" as="sourcePoint" />
            <mxPoint x="510" y="540" as="targetPoint" />
          </mxGeometry>
        </mxCell>
        <mxCell id="ywr4OouwpL6C_haG93kZ-200" value="&lt;font face=&quot;Times New Roman&quot;&gt;yk&lt;/font&gt;" style="text;html=1;align=center;verticalAlign=middle;whiteSpace=wrap;rounded=0;" parent="1" vertex="1">
          <mxGeometry x="480" y="520" width="60" height="30" as="geometry" />
        </mxCell>
        <mxCell id="ywr4OouwpL6C_haG93kZ-201" value="" style="endArrow=none;dashed=1;html=1;rounded=0;" parent="1" edge="1">
          <mxGeometry width="50" height="50" relative="1" as="geometry">
            <mxPoint x="440" y="520" as="sourcePoint" />
            <mxPoint x="560" y="520" as="targetPoint" />
          </mxGeometry>
        </mxCell>
        <mxCell id="ywr4OouwpL6C_haG93kZ-203" value="" style="endArrow=none;dashed=1;html=1;rounded=0;" parent="1" edge="1">
          <mxGeometry width="50" height="50" relative="1" as="geometry">
            <mxPoint x="560" y="520" as="sourcePoint" />
            <mxPoint x="560" y="360" as="targetPoint" />
          </mxGeometry>
        </mxCell>
        <mxCell id="ywr4OouwpL6C_haG93kZ-204" value="" style="endArrow=none;dashed=1;html=1;rounded=0;" parent="1" edge="1">
          <mxGeometry width="50" height="50" relative="1" as="geometry">
            <mxPoint x="440" y="360" as="sourcePoint" />
            <mxPoint x="560" y="360" as="targetPoint" />
          </mxGeometry>
        </mxCell>
        <mxCell id="ywr4OouwpL6C_haG93kZ-205" value="" style="rounded=0;whiteSpace=wrap;html=1;" parent="1" vertex="1">
          <mxGeometry x="30" y="630" width="100" height="40" as="geometry" />
        </mxCell>
        <mxCell id="ywr4OouwpL6C_haG93kZ-206" value="&lt;font style=&quot;font-size: 18px;&quot; face=&quot;Times New Roman&quot;&gt;DC&lt;/font&gt;" style="text;html=1;align=center;verticalAlign=middle;whiteSpace=wrap;rounded=0;" parent="1" vertex="1">
          <mxGeometry x="50" y="635" width="60" height="30" as="geometry" />
        </mxCell>
        <mxCell id="ywr4OouwpL6C_haG93kZ-207" value="" style="rounded=0;whiteSpace=wrap;html=1;" parent="1" vertex="1">
          <mxGeometry x="150" y="630" width="130" height="40" as="geometry" />
        </mxCell>
        <mxCell id="ywr4OouwpL6C_haG93kZ-208" value="&lt;font style=&quot;font-size: 18px;&quot; face=&quot;Times New Roman&quot;&gt;DC&lt;/font&gt;" style="text;html=1;align=center;verticalAlign=middle;whiteSpace=wrap;rounded=0;" parent="1" vertex="1">
          <mxGeometry x="190" y="635" width="60" height="30" as="geometry" />
        </mxCell>
        <mxCell id="ywr4OouwpL6C_haG93kZ-209" value="" style="rounded=0;whiteSpace=wrap;html=1;" parent="1" vertex="1">
          <mxGeometry x="290" y="630" width="120" height="40" as="geometry" />
        </mxCell>
        <mxCell id="ywr4OouwpL6C_haG93kZ-210" value="&lt;font style=&quot;font-size: 18px;&quot; face=&quot;Times New Roman&quot;&gt;DC&lt;/font&gt;" style="text;html=1;align=center;verticalAlign=middle;whiteSpace=wrap;rounded=0;" parent="1" vertex="1">
          <mxGeometry x="320" y="635" width="60" height="30" as="geometry" />
        </mxCell>
        <mxCell id="ywr4OouwpL6C_haG93kZ-211" value="" style="rounded=0;whiteSpace=wrap;html=1;" parent="1" vertex="1">
          <mxGeometry x="420" y="630" width="100" height="40" as="geometry" />
        </mxCell>
        <mxCell id="ywr4OouwpL6C_haG93kZ-212" value="&lt;font style=&quot;font-size: 18px;&quot; face=&quot;Times New Roman&quot;&gt;DC&lt;/font&gt;" style="text;html=1;align=center;verticalAlign=middle;whiteSpace=wrap;rounded=0;" parent="1" vertex="1">
          <mxGeometry x="440" y="635" width="60" height="30" as="geometry" />
        </mxCell>
        <mxCell id="ywr4OouwpL6C_haG93kZ-213" value="" style="rounded=0;whiteSpace=wrap;html=1;" parent="1" vertex="1">
          <mxGeometry x="40" y="690" width="120" height="40" as="geometry" />
        </mxCell>
        <mxCell id="ywr4OouwpL6C_haG93kZ-214" value="" style="rounded=0;whiteSpace=wrap;html=1;" parent="1" vertex="1">
          <mxGeometry x="160" y="690" width="120" height="40" as="geometry" />
        </mxCell>
        <mxCell id="ywr4OouwpL6C_haG93kZ-215" value="" style="rounded=0;whiteSpace=wrap;html=1;" parent="1" vertex="1">
          <mxGeometry x="280" y="690" width="120" height="40" as="geometry" />
        </mxCell>
        <mxCell id="ywr4OouwpL6C_haG93kZ-216" value="" style="rounded=0;whiteSpace=wrap;html=1;" parent="1" vertex="1">
          <mxGeometry x="400" y="690" width="120" height="40" as="geometry" />
        </mxCell>
        <mxCell id="ywr4OouwpL6C_haG93kZ-217" value="" style="rounded=0;whiteSpace=wrap;html=1;" parent="1" vertex="1">
          <mxGeometry x="520" y="690" width="120" height="40" as="geometry" />
        </mxCell>
        <mxCell id="ywr4OouwpL6C_haG93kZ-218" value="" style="rounded=0;whiteSpace=wrap;html=1;" parent="1" vertex="1">
          <mxGeometry x="640" y="690" width="120" height="40" as="geometry" />
        </mxCell>
        <mxCell id="ywr4OouwpL6C_haG93kZ-219" value="" style="rounded=0;whiteSpace=wrap;html=1;" parent="1" vertex="1">
          <mxGeometry x="760" y="690" width="120" height="40" as="geometry" />
        </mxCell>
        <mxCell id="ywr4OouwpL6C_haG93kZ-221" value="" style="endArrow=none;html=1;rounded=0;entryX=0.5;entryY=1;entryDx=0;entryDy=0;exitX=0.332;exitY=0.017;exitDx=0;exitDy=0;exitPerimeter=0;" parent="1" source="ywr4OouwpL6C_haG93kZ-213" target="ywr4OouwpL6C_haG93kZ-205" edge="1">
          <mxGeometry width="50" height="50" relative="1" as="geometry">
            <mxPoint x="80" y="860" as="sourcePoint" />
            <mxPoint x="130" y="810" as="targetPoint" />
          </mxGeometry>
        </mxCell>
        <mxCell id="ywr4OouwpL6C_haG93kZ-222" value="" style="endArrow=none;html=1;rounded=0;entryX=0.7;entryY=0.997;entryDx=0;entryDy=0;exitX=0.5;exitY=0;exitDx=0;exitDy=0;entryPerimeter=0;" parent="1" source="ywr4OouwpL6C_haG93kZ-213" target="ywr4OouwpL6C_haG93kZ-205" edge="1">
          <mxGeometry width="50" height="50" relative="1" as="geometry">
            <mxPoint x="90" y="810" as="sourcePoint" />
            <mxPoint x="140" y="760" as="targetPoint" />
          </mxGeometry>
        </mxCell>
        <mxCell id="ywr4OouwpL6C_haG93kZ-223" value="" style="endArrow=none;html=1;rounded=0;entryX=0.167;entryY=0.015;entryDx=0;entryDy=0;exitX=0.302;exitY=0.993;exitDx=0;exitDy=0;exitPerimeter=0;entryPerimeter=0;" parent="1" source="ywr4OouwpL6C_haG93kZ-205" target="ywr4OouwpL6C_haG93kZ-213" edge="1">
          <mxGeometry width="50" height="50" relative="1" as="geometry">
            <mxPoint x="79.9" y="671.1999999999999" as="sourcePoint" />
            <mxPoint x="80.09999999999997" y="690" as="targetPoint" />
          </mxGeometry>
        </mxCell>
        <mxCell id="ywr4OouwpL6C_haG93kZ-225" value="" style="endArrow=none;html=1;rounded=0;entryX=0.25;entryY=0;entryDx=0;entryDy=0;exitX=0.302;exitY=0.993;exitDx=0;exitDy=0;exitPerimeter=0;" parent="1" edge="1">
          <mxGeometry width="50" height="50" relative="1" as="geometry">
            <mxPoint x="219.76" y="670" as="sourcePoint" />
            <mxPoint x="219.85999999999996" y="690" as="targetPoint" />
          </mxGeometry>
        </mxCell>
        <mxCell id="ywr4OouwpL6C_haG93kZ-226" value="" style="endArrow=none;html=1;rounded=0;entryX=0.5;entryY=1;entryDx=0;entryDy=0;exitX=0.5;exitY=0;exitDx=0;exitDy=0;" parent="1" edge="1">
          <mxGeometry width="50" height="50" relative="1" as="geometry">
            <mxPoint x="199.76" y="690" as="sourcePoint" />
            <mxPoint x="199.76" y="670" as="targetPoint" />
          </mxGeometry>
        </mxCell>
        <mxCell id="ywr4OouwpL6C_haG93kZ-227" value="" style="endArrow=none;html=1;rounded=0;entryX=0.7;entryY=0.997;entryDx=0;entryDy=0;exitX=0.664;exitY=0.006;exitDx=0;exitDy=0;exitPerimeter=0;entryPerimeter=0;" parent="1" edge="1">
          <mxGeometry width="50" height="50" relative="1" as="geometry">
            <mxPoint x="239.76" y="690" as="sourcePoint" />
            <mxPoint x="239.76" y="670" as="targetPoint" />
          </mxGeometry>
        </mxCell>
        <mxCell id="ywr4OouwpL6C_haG93kZ-228" value="" style="endArrow=none;html=1;rounded=0;entryX=0.7;entryY=0.997;entryDx=0;entryDy=0;exitX=0.664;exitY=0.006;exitDx=0;exitDy=0;exitPerimeter=0;entryPerimeter=0;" parent="1" edge="1">
          <mxGeometry width="50" height="50" relative="1" as="geometry">
            <mxPoint x="370" y="690" as="sourcePoint" />
            <mxPoint x="370" y="670" as="targetPoint" />
          </mxGeometry>
        </mxCell>
        <mxCell id="ywr4OouwpL6C_haG93kZ-229" value="" style="endArrow=none;html=1;rounded=0;entryX=0.7;entryY=0.997;entryDx=0;entryDy=0;exitX=0.664;exitY=0.006;exitDx=0;exitDy=0;exitPerimeter=0;entryPerimeter=0;" parent="1" edge="1">
          <mxGeometry width="50" height="50" relative="1" as="geometry">
            <mxPoint x="449.88" y="690" as="sourcePoint" />
            <mxPoint x="449.88" y="670" as="targetPoint" />
          </mxGeometry>
        </mxCell>
        <mxCell id="ywr4OouwpL6C_haG93kZ-230" value="" style="endArrow=none;html=1;rounded=0;entryX=0.7;entryY=0.997;entryDx=0;entryDy=0;exitX=0.664;exitY=0.006;exitDx=0;exitDy=0;exitPerimeter=0;entryPerimeter=0;" parent="1" edge="1">
          <mxGeometry width="50" height="50" relative="1" as="geometry">
            <mxPoint x="330" y="690" as="sourcePoint" />
            <mxPoint x="330" y="670" as="targetPoint" />
          </mxGeometry>
        </mxCell>
        <mxCell id="ywr4OouwpL6C_haG93kZ-231" value="" style="endArrow=none;html=1;rounded=0;exitX=0.664;exitY=0.006;exitDx=0;exitDy=0;exitPerimeter=0;" parent="1" edge="1">
          <mxGeometry width="50" height="50" relative="1" as="geometry">
            <mxPoint x="579.39" y="690" as="sourcePoint" />
            <mxPoint x="580" y="500" as="targetPoint" />
          </mxGeometry>
        </mxCell>
        <mxCell id="ywr4OouwpL6C_haG93kZ-232" value="" style="endArrow=none;html=1;rounded=0;entryX=0.7;entryY=0.997;entryDx=0;entryDy=0;exitX=0.664;exitY=0.006;exitDx=0;exitDy=0;exitPerimeter=0;entryPerimeter=0;" parent="1" edge="1">
          <mxGeometry width="50" height="50" relative="1" as="geometry">
            <mxPoint x="469.88" y="690" as="sourcePoint" />
            <mxPoint x="469.88" y="670" as="targetPoint" />
          </mxGeometry>
        </mxCell>
        <mxCell id="ywr4OouwpL6C_haG93kZ-233" value="" style="endArrow=none;html=1;rounded=0;entryX=0.7;entryY=0.997;entryDx=0;entryDy=0;exitX=0.664;exitY=0.006;exitDx=0;exitDy=0;exitPerimeter=0;entryPerimeter=0;" parent="1" edge="1">
          <mxGeometry width="50" height="50" relative="1" as="geometry">
            <mxPoint x="350" y="690" as="sourcePoint" />
            <mxPoint x="350" y="670" as="targetPoint" />
          </mxGeometry>
        </mxCell>
        <mxCell id="ywr4OouwpL6C_haG93kZ-234" value="" style="endArrow=none;html=1;rounded=0;entryX=0.7;entryY=0.997;entryDx=0;entryDy=0;exitX=0.664;exitY=0.006;exitDx=0;exitDy=0;exitPerimeter=0;entryPerimeter=0;" parent="1" edge="1">
          <mxGeometry width="50" height="50" relative="1" as="geometry">
            <mxPoint x="489.88" y="690" as="sourcePoint" />
            <mxPoint x="489.88" y="670" as="targetPoint" />
          </mxGeometry>
        </mxCell>
        <mxCell id="ywr4OouwpL6C_haG93kZ-236" value="&lt;font face=&quot;Times New Roman&quot;&gt;&lt;span style=&quot;font-size: 18px;&quot;&gt;Рг МК&lt;/span&gt;&lt;/font&gt;" style="text;html=1;align=center;verticalAlign=middle;whiteSpace=wrap;rounded=0;" parent="1" vertex="1">
          <mxGeometry x="900" y="695" width="60" height="30" as="geometry" />
        </mxCell>
        <mxCell id="ywr4OouwpL6C_haG93kZ-237" value="" style="endArrow=classic;html=1;rounded=0;" parent="1" edge="1">
          <mxGeometry width="50" height="50" relative="1" as="geometry">
            <mxPoint x="279.62" y="630" as="sourcePoint" />
            <mxPoint x="279.62" y="500" as="targetPoint" />
          </mxGeometry>
        </mxCell>
        <mxCell id="ywr4OouwpL6C_haG93kZ-238" value="&lt;font face=&quot;Times New Roman&quot;&gt;y13&lt;/font&gt;" style="text;html=1;align=center;verticalAlign=middle;whiteSpace=wrap;rounded=0;" parent="1" vertex="1">
          <mxGeometry x="190" y="470" width="60" height="30" as="geometry" />
        </mxCell>
        <mxCell id="ywr4OouwpL6C_haG93kZ-239" value="" style="endArrow=none;dashed=1;html=1;rounded=0;" parent="1" edge="1">
          <mxGeometry width="50" height="50" relative="1" as="geometry">
            <mxPoint x="30" y="360" as="sourcePoint" />
            <mxPoint x="40" y="360" as="targetPoint" />
          </mxGeometry>
        </mxCell>
        <mxCell id="ywr4OouwpL6C_haG93kZ-240" value="" style="endArrow=none;dashed=1;html=1;rounded=0;" parent="1" edge="1">
          <mxGeometry width="50" height="50" relative="1" as="geometry">
            <mxPoint x="30" y="520" as="sourcePoint" />
            <mxPoint x="40" y="520" as="targetPoint" />
          </mxGeometry>
        </mxCell>
        <mxCell id="ywr4OouwpL6C_haG93kZ-243" value="" style="edgeStyle=orthogonalEdgeStyle;rounded=0;orthogonalLoop=1;jettySize=auto;html=1;entryX=0;entryY=1;entryDx=0;entryDy=0;strokeWidth=4;" parent="1" source="ywr4OouwpL6C_haG93kZ-241" target="ywr4OouwpL6C_haG93kZ-216" edge="1">
          <mxGeometry relative="1" as="geometry">
            <Array as="points">
              <mxPoint x="400" y="790" />
              <mxPoint x="400" y="790" />
            </Array>
          </mxGeometry>
        </mxCell>
        <mxCell id="ywr4OouwpL6C_haG93kZ-241" value="" style="rounded=0;whiteSpace=wrap;html=1;" parent="1" vertex="1">
          <mxGeometry x="230" y="810" width="350" height="220" as="geometry" />
        </mxCell>
        <mxCell id="ywr4OouwpL6C_haG93kZ-242" value="&lt;font style=&quot;font-size: 18px;&quot; face=&quot;Times New Roman&quot;&gt;ПЗУ МК&lt;/font&gt;" style="text;html=1;align=center;verticalAlign=middle;whiteSpace=wrap;rounded=0;" parent="1" vertex="1">
          <mxGeometry x="358" y="905" width="94" height="30" as="geometry" />
        </mxCell>
        <mxCell id="ywr4OouwpL6C_haG93kZ-244" value="&lt;font style=&quot;font-size: 18px;&quot; face=&quot;Times New Roman&quot;&gt;D&lt;/font&gt;" style="text;html=1;align=center;verticalAlign=middle;whiteSpace=wrap;rounded=0;" parent="1" vertex="1">
          <mxGeometry x="370" y="820" width="60" height="30" as="geometry" />
        </mxCell>
        <mxCell id="ywr4OouwpL6C_haG93kZ-245" value="&lt;font style=&quot;font-size: 18px;&quot; face=&quot;Times New Roman&quot;&gt;A&lt;/font&gt;" style="text;html=1;align=center;verticalAlign=middle;whiteSpace=wrap;rounded=0;" parent="1" vertex="1">
          <mxGeometry x="375" y="990" width="60" height="30" as="geometry" />
        </mxCell>
        <mxCell id="ywr4OouwpL6C_haG93kZ-246" value="" style="rounded=0;whiteSpace=wrap;html=1;" parent="1" vertex="1">
          <mxGeometry x="640" y="360" width="120" height="190" as="geometry" />
        </mxCell>
        <mxCell id="ywr4OouwpL6C_haG93kZ-247" value="" style="endArrow=none;html=1;rounded=0;entryX=0.5;entryY=0;entryDx=0;entryDy=0;exitX=0.5;exitY=1;exitDx=0;exitDy=0;" parent="1" source="ywr4OouwpL6C_haG93kZ-246" target="ywr4OouwpL6C_haG93kZ-246" edge="1">
          <mxGeometry width="50" height="50" relative="1" as="geometry">
            <mxPoint x="690" y="450" as="sourcePoint" />
            <mxPoint x="740" y="400" as="targetPoint" />
          </mxGeometry>
        </mxCell>
        <mxCell id="ywr4OouwpL6C_haG93kZ-248" value="" style="endArrow=none;html=1;rounded=0;" parent="1" source="ywr4OouwpL6C_haG93kZ-246" edge="1">
          <mxGeometry width="50" height="50" relative="1" as="geometry">
            <mxPoint x="710" y="530" as="sourcePoint" />
            <mxPoint x="700" y="495" as="targetPoint" />
          </mxGeometry>
        </mxCell>
        <mxCell id="ywr4OouwpL6C_haG93kZ-249" value="&lt;font style=&quot;font-size: 12px;&quot; face=&quot;Times New Roman&quot;&gt;1&lt;/font&gt;&lt;div style=&quot;&quot;&gt;&lt;font style=&quot;font-size: 12px;&quot; face=&quot;Times New Roman&quot;&gt;2&lt;/font&gt;&lt;/div&gt;&lt;div style=&quot;&quot;&gt;&lt;font style=&quot;font-size: 12px;&quot; face=&quot;Times New Roman&quot;&gt;3&lt;/font&gt;&lt;/div&gt;&lt;div style=&quot;&quot;&gt;&lt;font style=&quot;font-size: 12px;&quot; face=&quot;Times New Roman&quot;&gt;4&lt;/font&gt;&lt;/div&gt;&lt;div style=&quot;&quot;&gt;&lt;font style=&quot;font-size: 12px;&quot; face=&quot;Times New Roman&quot;&gt;5&lt;/font&gt;&lt;/div&gt;&lt;div style=&quot;&quot;&gt;&lt;font style=&quot;font-size: 12px;&quot; face=&quot;Times New Roman&quot;&gt;6&lt;/font&gt;&lt;/div&gt;&lt;div style=&quot;&quot;&gt;&lt;font style=&quot;font-size: 12px;&quot; face=&quot;Times New Roman&quot;&gt;7&lt;/font&gt;&lt;/div&gt;&lt;div style=&quot;&quot;&gt;&lt;font style=&quot;font-size: 12px;&quot; face=&quot;Times New Roman&quot;&gt;8&lt;/font&gt;&lt;/div&gt;" style="text;html=1;align=center;verticalAlign=middle;whiteSpace=wrap;rounded=0;" parent="1" vertex="1">
          <mxGeometry x="640" y="360" width="30" height="120" as="geometry" />
        </mxCell>
        <mxCell id="ywr4OouwpL6C_haG93kZ-250" value="" style="endArrow=none;html=1;rounded=0;entryX=-0.003;entryY=0.736;entryDx=0;entryDy=0;entryPerimeter=0;" parent="1" target="ywr4OouwpL6C_haG93kZ-246" edge="1">
          <mxGeometry width="50" height="50" relative="1" as="geometry">
            <mxPoint x="580" y="500" as="sourcePoint" />
            <mxPoint x="650" y="530" as="targetPoint" />
          </mxGeometry>
        </mxCell>
        <mxCell id="ywr4OouwpL6C_haG93kZ-251" value="" style="endArrow=none;html=1;rounded=0;exitX=0.667;exitY=0;exitDx=0;exitDy=0;exitPerimeter=0;" parent="1" source="ywr4OouwpL6C_haG93kZ-217" edge="1">
          <mxGeometry width="50" height="50" relative="1" as="geometry">
            <mxPoint x="610" y="670" as="sourcePoint" />
            <mxPoint x="600" y="520" as="targetPoint" />
          </mxGeometry>
        </mxCell>
        <mxCell id="ywr4OouwpL6C_haG93kZ-252" value="" style="endArrow=none;html=1;rounded=0;entryX=0.005;entryY=0.841;entryDx=0;entryDy=0;entryPerimeter=0;" parent="1" target="ywr4OouwpL6C_haG93kZ-246" edge="1">
          <mxGeometry width="50" height="50" relative="1" as="geometry">
            <mxPoint x="600" y="520" as="sourcePoint" />
            <mxPoint x="690" y="590" as="targetPoint" />
          </mxGeometry>
        </mxCell>
        <mxCell id="ywr4OouwpL6C_haG93kZ-253" value="" style="endArrow=none;html=1;rounded=0;" parent="1" edge="1">
          <mxGeometry width="50" height="50" relative="1" as="geometry">
            <mxPoint x="620" y="690" as="sourcePoint" />
            <mxPoint x="620" y="540" as="targetPoint" />
          </mxGeometry>
        </mxCell>
        <mxCell id="ywr4OouwpL6C_haG93kZ-254" value="" style="endArrow=none;html=1;rounded=0;entryX=-0.001;entryY=0.947;entryDx=0;entryDy=0;entryPerimeter=0;" parent="1" target="ywr4OouwpL6C_haG93kZ-246" edge="1">
          <mxGeometry width="50" height="50" relative="1" as="geometry">
            <mxPoint x="620" y="540" as="sourcePoint" />
            <mxPoint x="670" y="540" as="targetPoint" />
          </mxGeometry>
        </mxCell>
        <mxCell id="ywr4OouwpL6C_haG93kZ-256" value="" style="endArrow=none;html=1;rounded=0;exitX=0.003;exitY=0.686;exitDx=0;exitDy=0;exitPerimeter=0;" parent="1" source="ywr4OouwpL6C_haG93kZ-246" edge="1">
          <mxGeometry width="50" height="50" relative="1" as="geometry">
            <mxPoint x="640" y="490" as="sourcePoint" />
            <mxPoint x="700" y="490" as="targetPoint" />
          </mxGeometry>
        </mxCell>
        <mxCell id="ywr4OouwpL6C_haG93kZ-257" value="&lt;font face=&quot;Times New Roman&quot;&gt;&lt;span style=&quot;font-size: 18px;&quot;&gt;MS&lt;/span&gt;&lt;/font&gt;" style="text;html=1;align=center;verticalAlign=middle;whiteSpace=wrap;rounded=0;" parent="1" vertex="1">
          <mxGeometry x="700" y="360" width="60" height="30" as="geometry" />
        </mxCell>
        <mxCell id="tZiwxAE927Imx5L1TiUG-11" style="edgeStyle=orthogonalEdgeStyle;rounded=0;orthogonalLoop=1;jettySize=auto;html=1;entryX=0.5;entryY=0;entryDx=0;entryDy=0;" edge="1" parent="1" source="tZiwxAE927Imx5L1TiUG-1" target="tZiwxAE927Imx5L1TiUG-2">
          <mxGeometry relative="1" as="geometry">
            <Array as="points">
              <mxPoint x="1330" y="90" />
              <mxPoint x="1210" y="90" />
            </Array>
          </mxGeometry>
        </mxCell>
        <mxCell id="tZiwxAE927Imx5L1TiUG-32" style="edgeStyle=orthogonalEdgeStyle;rounded=0;orthogonalLoop=1;jettySize=auto;html=1;entryX=0.5;entryY=0;entryDx=0;entryDy=0;exitX=0.5;exitY=1;exitDx=0;exitDy=0;" edge="1" parent="1" source="tZiwxAE927Imx5L1TiUG-1" target="tZiwxAE927Imx5L1TiUG-3">
          <mxGeometry relative="1" as="geometry" />
        </mxCell>
        <mxCell id="tZiwxAE927Imx5L1TiUG-1" value="Скремблирование" style="rounded=0;whiteSpace=wrap;html=1;" vertex="1" parent="1">
          <mxGeometry x="1270" y="30" width="120" height="40" as="geometry" />
        </mxCell>
        <mxCell id="tZiwxAE927Imx5L1TiUG-12" style="edgeStyle=orthogonalEdgeStyle;rounded=0;orthogonalLoop=1;jettySize=auto;html=1;entryX=0.5;entryY=0;entryDx=0;entryDy=0;" edge="1" parent="1" source="tZiwxAE927Imx5L1TiUG-2" target="tZiwxAE927Imx5L1TiUG-6">
          <mxGeometry relative="1" as="geometry" />
        </mxCell>
        <mxCell id="tZiwxAE927Imx5L1TiUG-27" style="edgeStyle=orthogonalEdgeStyle;rounded=0;orthogonalLoop=1;jettySize=auto;html=1;entryX=0.5;entryY=0;entryDx=0;entryDy=0;exitX=0.5;exitY=1;exitDx=0;exitDy=0;" edge="1" parent="1" source="tZiwxAE927Imx5L1TiUG-2" target="tZiwxAE927Imx5L1TiUG-7">
          <mxGeometry relative="1" as="geometry" />
        </mxCell>
        <mxCell id="tZiwxAE927Imx5L1TiUG-2" value="Аналоговое" style="rounded=0;whiteSpace=wrap;html=1;" vertex="1" parent="1">
          <mxGeometry x="1150" y="100" width="120" height="40" as="geometry" />
        </mxCell>
        <mxCell id="tZiwxAE927Imx5L1TiUG-34" style="edgeStyle=orthogonalEdgeStyle;rounded=0;orthogonalLoop=1;jettySize=auto;html=1;entryX=0.5;entryY=0;entryDx=0;entryDy=0;" edge="1" parent="1" source="tZiwxAE927Imx5L1TiUG-3" target="tZiwxAE927Imx5L1TiUG-33">
          <mxGeometry relative="1" as="geometry" />
        </mxCell>
        <mxCell id="tZiwxAE927Imx5L1TiUG-3" value="Цифровое" style="rounded=0;whiteSpace=wrap;html=1;" vertex="1" parent="1">
          <mxGeometry x="1540" y="110" width="120" height="40" as="geometry" />
        </mxCell>
        <mxCell id="tZiwxAE927Imx5L1TiUG-15" style="edgeStyle=orthogonalEdgeStyle;rounded=0;orthogonalLoop=1;jettySize=auto;html=1;entryX=0.5;entryY=0;entryDx=0;entryDy=0;exitX=0.5;exitY=1;exitDx=0;exitDy=0;" edge="1" parent="1" source="tZiwxAE927Imx5L1TiUG-6" target="tZiwxAE927Imx5L1TiUG-14">
          <mxGeometry relative="1" as="geometry" />
        </mxCell>
        <mxCell id="tZiwxAE927Imx5L1TiUG-17" style="edgeStyle=orthogonalEdgeStyle;rounded=0;orthogonalLoop=1;jettySize=auto;html=1;entryX=0.5;entryY=0;entryDx=0;entryDy=0;exitX=0.5;exitY=1;exitDx=0;exitDy=0;" edge="1" parent="1" source="tZiwxAE927Imx5L1TiUG-6" target="tZiwxAE927Imx5L1TiUG-16">
          <mxGeometry relative="1" as="geometry" />
        </mxCell>
        <mxCell id="tZiwxAE927Imx5L1TiUG-6" value="Частотное" style="rounded=0;whiteSpace=wrap;html=1;" vertex="1" parent="1">
          <mxGeometry x="1070" y="170" width="120" height="40" as="geometry" />
        </mxCell>
        <mxCell id="tZiwxAE927Imx5L1TiUG-30" style="edgeStyle=orthogonalEdgeStyle;rounded=0;orthogonalLoop=1;jettySize=auto;html=1;entryX=0.5;entryY=0;entryDx=0;entryDy=0;" edge="1" parent="1" source="tZiwxAE927Imx5L1TiUG-7" target="tZiwxAE927Imx5L1TiUG-28">
          <mxGeometry relative="1" as="geometry" />
        </mxCell>
        <mxCell id="tZiwxAE927Imx5L1TiUG-31" style="edgeStyle=orthogonalEdgeStyle;rounded=0;orthogonalLoop=1;jettySize=auto;html=1;entryX=0.5;entryY=0;entryDx=0;entryDy=0;" edge="1" parent="1" source="tZiwxAE927Imx5L1TiUG-7" target="tZiwxAE927Imx5L1TiUG-29">
          <mxGeometry relative="1" as="geometry" />
        </mxCell>
        <mxCell id="tZiwxAE927Imx5L1TiUG-7" value="Временное" style="rounded=0;whiteSpace=wrap;html=1;" vertex="1" parent="1">
          <mxGeometry x="1400" y="180" width="120" height="40" as="geometry" />
        </mxCell>
        <mxCell id="tZiwxAE927Imx5L1TiUG-21" style="edgeStyle=orthogonalEdgeStyle;rounded=0;orthogonalLoop=1;jettySize=auto;html=1;entryX=0.5;entryY=0;entryDx=0;entryDy=0;" edge="1" parent="1" source="tZiwxAE927Imx5L1TiUG-14" target="tZiwxAE927Imx5L1TiUG-18">
          <mxGeometry relative="1" as="geometry">
            <Array as="points">
              <mxPoint x="995" y="340" />
              <mxPoint x="915" y="340" />
            </Array>
          </mxGeometry>
        </mxCell>
        <mxCell id="tZiwxAE927Imx5L1TiUG-22" style="edgeStyle=orthogonalEdgeStyle;rounded=0;orthogonalLoop=1;jettySize=auto;html=1;entryX=0.5;entryY=0;entryDx=0;entryDy=0;" edge="1" parent="1" source="tZiwxAE927Imx5L1TiUG-14" target="tZiwxAE927Imx5L1TiUG-19">
          <mxGeometry relative="1" as="geometry">
            <Array as="points">
              <mxPoint x="995" y="340" />
              <mxPoint x="1065" y="340" />
            </Array>
          </mxGeometry>
        </mxCell>
        <mxCell id="tZiwxAE927Imx5L1TiUG-14" value="Частотная&lt;div&gt;&amp;nbsp;инверсия&lt;/div&gt;" style="rounded=0;whiteSpace=wrap;html=1;" vertex="1" parent="1">
          <mxGeometry x="950" y="260" width="90" height="60" as="geometry" />
        </mxCell>
        <mxCell id="tZiwxAE927Imx5L1TiUG-25" style="edgeStyle=orthogonalEdgeStyle;rounded=0;orthogonalLoop=1;jettySize=auto;html=1;entryX=0.5;entryY=0;entryDx=0;entryDy=0;" edge="1" parent="1" source="tZiwxAE927Imx5L1TiUG-16" target="tZiwxAE927Imx5L1TiUG-23">
          <mxGeometry relative="1" as="geometry">
            <Array as="points">
              <mxPoint x="1255" y="340" />
              <mxPoint x="1185" y="340" />
            </Array>
          </mxGeometry>
        </mxCell>
        <mxCell id="tZiwxAE927Imx5L1TiUG-26" style="edgeStyle=orthogonalEdgeStyle;rounded=0;orthogonalLoop=1;jettySize=auto;html=1;entryX=0.5;entryY=0;entryDx=0;entryDy=0;" edge="1" parent="1" source="tZiwxAE927Imx5L1TiUG-16" target="tZiwxAE927Imx5L1TiUG-24">
          <mxGeometry relative="1" as="geometry">
            <Array as="points">
              <mxPoint x="1255" y="340" />
              <mxPoint x="1335" y="340" />
            </Array>
          </mxGeometry>
        </mxCell>
        <mxCell id="tZiwxAE927Imx5L1TiUG-16" value="Частотная&lt;div&gt;&amp;nbsp;инверсия&lt;/div&gt;" style="rounded=0;whiteSpace=wrap;html=1;" vertex="1" parent="1">
          <mxGeometry x="1210" y="260" width="90" height="60" as="geometry" />
        </mxCell>
        <mxCell id="tZiwxAE927Imx5L1TiUG-18" value="Фиксированная" style="rounded=0;whiteSpace=wrap;html=1;" vertex="1" parent="1">
          <mxGeometry x="870" y="345" width="90" height="60" as="geometry" />
        </mxCell>
        <mxCell id="tZiwxAE927Imx5L1TiUG-19" value="Под управлением ключа" style="rounded=0;whiteSpace=wrap;html=1;" vertex="1" parent="1">
          <mxGeometry x="1020" y="345" width="90" height="60" as="geometry" />
        </mxCell>
        <mxCell id="tZiwxAE927Imx5L1TiUG-23" value="Фиксированная" style="rounded=0;whiteSpace=wrap;html=1;" vertex="1" parent="1">
          <mxGeometry x="1140" y="345" width="90" height="60" as="geometry" />
        </mxCell>
        <mxCell id="tZiwxAE927Imx5L1TiUG-24" value="Под управлением ключа" style="rounded=0;whiteSpace=wrap;html=1;" vertex="1" parent="1">
          <mxGeometry x="1290" y="345" width="90" height="60" as="geometry" />
        </mxCell>
        <mxCell id="tZiwxAE927Imx5L1TiUG-28" value="Фиксированная" style="rounded=0;whiteSpace=wrap;html=1;" vertex="1" parent="1">
          <mxGeometry x="1340" y="260" width="90" height="60" as="geometry" />
        </mxCell>
        <mxCell id="tZiwxAE927Imx5L1TiUG-29" value="Под управлением ключа" style="rounded=0;whiteSpace=wrap;html=1;" vertex="1" parent="1">
          <mxGeometry x="1490" y="260" width="90" height="60" as="geometry" />
        </mxCell>
        <mxCell id="tZiwxAE927Imx5L1TiUG-33" value="Криптопреобразование" style="rounded=0;whiteSpace=wrap;html=1;" vertex="1" parent="1">
          <mxGeometry x="1540" y="180" width="130" height="40" as="geometry" />
        </mxCell>
        <mxCell id="tZiwxAE927Imx5L1TiUG-35" value="&lt;font style=&quot;font-size: 20px;&quot;&gt;x(t)&lt;/font&gt;&amp;nbsp;" style="text;html=1;align=center;verticalAlign=middle;whiteSpace=wrap;rounded=0;fontFamily=Times New Roman;" vertex="1" parent="1">
          <mxGeometry x="950" y="920" width="60" height="30" as="geometry" />
        </mxCell>
        <mxCell id="tZiwxAE927Imx5L1TiUG-36" value="" style="endArrow=classic;html=1;rounded=0;exitX=1;exitY=0.5;exitDx=0;exitDy=0;" edge="1" parent="1" source="tZiwxAE927Imx5L1TiUG-35">
          <mxGeometry width="50" height="50" relative="1" as="geometry">
            <mxPoint x="1100" y="980" as="sourcePoint" />
            <mxPoint x="1040" y="935" as="targetPoint" />
          </mxGeometry>
        </mxCell>
        <mxCell id="tZiwxAE927Imx5L1TiUG-39" value="" style="rounded=0;whiteSpace=wrap;html=1;" vertex="1" parent="1">
          <mxGeometry x="1040" y="915" width="90" height="40" as="geometry" />
        </mxCell>
        <mxCell id="tZiwxAE927Imx5L1TiUG-40" value="&lt;font style=&quot;font-size: 18px;&quot; face=&quot;Times New Roman&quot;&gt;АЦП&lt;/font&gt;" style="text;html=1;align=center;verticalAlign=middle;whiteSpace=wrap;rounded=0;" vertex="1" parent="1">
          <mxGeometry x="1055" y="920" width="60" height="30" as="geometry" />
        </mxCell>
        <mxCell id="tZiwxAE927Imx5L1TiUG-41" value="" style="endArrow=classic;html=1;rounded=0;exitX=1;exitY=0.5;exitDx=0;exitDy=0;" edge="1" parent="1">
          <mxGeometry width="50" height="50" relative="1" as="geometry">
            <mxPoint x="1130" y="934.66" as="sourcePoint" />
            <mxPoint x="1170" y="935" as="targetPoint" />
          </mxGeometry>
        </mxCell>
        <mxCell id="tZiwxAE927Imx5L1TiUG-42" value="" style="rounded=0;whiteSpace=wrap;html=1;" vertex="1" parent="1">
          <mxGeometry x="1170" y="915" width="90" height="40" as="geometry" />
        </mxCell>
        <mxCell id="tZiwxAE927Imx5L1TiUG-43" value="&lt;font style=&quot;font-size: 18px;&quot; face=&quot;Times New Roman&quot;&gt;БПФ&lt;/font&gt;" style="text;html=1;align=center;verticalAlign=middle;whiteSpace=wrap;rounded=0;" vertex="1" parent="1">
          <mxGeometry x="1185" y="920" width="60" height="30" as="geometry" />
        </mxCell>
        <mxCell id="tZiwxAE927Imx5L1TiUG-44" value="" style="endArrow=classic;html=1;rounded=0;exitX=1;exitY=0.5;exitDx=0;exitDy=0;" edge="1" parent="1">
          <mxGeometry width="50" height="50" relative="1" as="geometry">
            <mxPoint x="1260" y="934.76" as="sourcePoint" />
            <mxPoint x="1300" y="935" as="targetPoint" />
          </mxGeometry>
        </mxCell>
        <mxCell id="tZiwxAE927Imx5L1TiUG-45" value="" style="rounded=0;whiteSpace=wrap;html=1;" vertex="1" parent="1">
          <mxGeometry x="1300" y="915" width="110" height="40" as="geometry" />
        </mxCell>
        <mxCell id="tZiwxAE927Imx5L1TiUG-46" value="&lt;font style=&quot;font-size: 18px;&quot; face=&quot;Times New Roman&quot;&gt;Перестановка&lt;/font&gt;" style="text;html=1;align=center;verticalAlign=middle;whiteSpace=wrap;rounded=0;" vertex="1" parent="1">
          <mxGeometry x="1325" y="920" width="60" height="30" as="geometry" />
        </mxCell>
        <mxCell id="tZiwxAE927Imx5L1TiUG-47" value="" style="endArrow=classic;html=1;rounded=0;entryX=0.5;entryY=1;entryDx=0;entryDy=0;" edge="1" parent="1" target="tZiwxAE927Imx5L1TiUG-45">
          <mxGeometry width="50" height="50" relative="1" as="geometry">
            <mxPoint x="1355" y="1000" as="sourcePoint" />
            <mxPoint x="1330" y="990" as="targetPoint" />
          </mxGeometry>
        </mxCell>
        <mxCell id="tZiwxAE927Imx5L1TiUG-48" value="&lt;font style=&quot;font-size: 18px;&quot; face=&quot;Times New Roman&quot;&gt;Ключ&lt;/font&gt;" style="text;html=1;align=center;verticalAlign=middle;whiteSpace=wrap;rounded=0;" vertex="1" parent="1">
          <mxGeometry x="1325" y="1000" width="60" height="30" as="geometry" />
        </mxCell>
        <mxCell id="tZiwxAE927Imx5L1TiUG-49" value="" style="rounded=0;whiteSpace=wrap;html=1;" vertex="1" parent="1">
          <mxGeometry x="1450" y="915" width="90" height="40" as="geometry" />
        </mxCell>
        <mxCell id="tZiwxAE927Imx5L1TiUG-50" value="&lt;font style=&quot;font-size: 18px;&quot; face=&quot;Times New Roman&quot;&gt;ОБПФ&lt;/font&gt;" style="text;html=1;align=center;verticalAlign=middle;whiteSpace=wrap;rounded=0;" vertex="1" parent="1">
          <mxGeometry x="1465" y="920" width="60" height="30" as="geometry" />
        </mxCell>
        <mxCell id="tZiwxAE927Imx5L1TiUG-51" value="" style="endArrow=classic;html=1;rounded=0;exitX=1;exitY=0.5;exitDx=0;exitDy=0;" edge="1" parent="1">
          <mxGeometry width="50" height="50" relative="1" as="geometry">
            <mxPoint x="1540" y="935" as="sourcePoint" />
            <mxPoint x="1580" y="935" as="targetPoint" />
          </mxGeometry>
        </mxCell>
        <mxCell id="tZiwxAE927Imx5L1TiUG-52" value="" style="endArrow=classic;html=1;rounded=0;exitX=1;exitY=0.5;exitDx=0;exitDy=0;" edge="1" parent="1">
          <mxGeometry width="50" height="50" relative="1" as="geometry">
            <mxPoint x="1410" y="934.76" as="sourcePoint" />
            <mxPoint x="1450" y="935" as="targetPoint" />
          </mxGeometry>
        </mxCell>
        <mxCell id="tZiwxAE927Imx5L1TiUG-53" value="&lt;font style=&quot;font-size: 20px;&quot;&gt;x(i×Δt)&lt;/font&gt;&amp;nbsp;" style="text;html=1;align=center;verticalAlign=middle;whiteSpace=wrap;rounded=0;fontFamily=Times New Roman;" vertex="1" parent="1">
          <mxGeometry x="1125" y="885" width="60" height="30" as="geometry" />
        </mxCell>
        <mxCell id="tZiwxAE927Imx5L1TiUG-54" value="" style="rounded=0;whiteSpace=wrap;html=1;" vertex="1" parent="1">
          <mxGeometry x="1580" y="915" width="90" height="40" as="geometry" />
        </mxCell>
        <mxCell id="tZiwxAE927Imx5L1TiUG-55" value="&lt;font style=&quot;font-size: 18px;&quot; face=&quot;Times New Roman&quot;&gt;ЦАП&lt;/font&gt;" style="text;html=1;align=center;verticalAlign=middle;whiteSpace=wrap;rounded=0;" vertex="1" parent="1">
          <mxGeometry x="1595" y="920" width="60" height="30" as="geometry" />
        </mxCell>
        <mxCell id="tZiwxAE927Imx5L1TiUG-56" value="&lt;font style=&quot;font-size: 20px;&quot;&gt;y(i×Δt)&lt;/font&gt;&amp;nbsp;" style="text;html=1;align=center;verticalAlign=middle;whiteSpace=wrap;rounded=0;fontFamily=Times New Roman;" vertex="1" parent="1">
          <mxGeometry x="1535" y="885" width="60" height="30" as="geometry" />
        </mxCell>
        <mxCell id="tZiwxAE927Imx5L1TiUG-57" value="" style="endArrow=classic;html=1;rounded=0;exitX=1;exitY=0.5;exitDx=0;exitDy=0;" edge="1" parent="1">
          <mxGeometry width="50" height="50" relative="1" as="geometry">
            <mxPoint x="1670" y="934.5" as="sourcePoint" />
            <mxPoint x="1710" y="935" as="targetPoint" />
          </mxGeometry>
        </mxCell>
        <mxCell id="tZiwxAE927Imx5L1TiUG-58" value="&lt;font style=&quot;font-size: 20px;&quot;&gt;y(t)&lt;/font&gt;&amp;nbsp;" style="text;html=1;align=center;verticalAlign=middle;whiteSpace=wrap;rounded=0;fontFamily=Times New Roman;" vertex="1" parent="1">
          <mxGeometry x="1660" y="885" width="60" height="30" as="geometry" />
        </mxCell>
        <mxCell id="tZiwxAE927Imx5L1TiUG-59" value="&lt;span style=&quot;font-size: 20px;&quot;&gt;канал связи&lt;/span&gt;" style="text;html=1;align=center;verticalAlign=middle;whiteSpace=wrap;rounded=0;fontFamily=Times New Roman;" vertex="1" parent="1">
          <mxGeometry x="1690" y="920" width="90" height="30" as="geometry" />
        </mxCell>
        <mxCell id="tZiwxAE927Imx5L1TiUG-68" value="" style="edgeStyle=orthogonalEdgeStyle;rounded=0;orthogonalLoop=1;jettySize=auto;html=1;" edge="1" parent="1" source="tZiwxAE927Imx5L1TiUG-61" target="tZiwxAE927Imx5L1TiUG-62">
          <mxGeometry relative="1" as="geometry" />
        </mxCell>
        <mxCell id="tZiwxAE927Imx5L1TiUG-61" value="" style="whiteSpace=wrap;html=1;aspect=fixed;" vertex="1" parent="1">
          <mxGeometry x="1295" y="560" width="40" height="40" as="geometry" />
        </mxCell>
        <mxCell id="tZiwxAE927Imx5L1TiUG-69" value="" style="edgeStyle=orthogonalEdgeStyle;rounded=0;orthogonalLoop=1;jettySize=auto;html=1;" edge="1" parent="1" source="tZiwxAE927Imx5L1TiUG-62" target="tZiwxAE927Imx5L1TiUG-63">
          <mxGeometry relative="1" as="geometry" />
        </mxCell>
        <mxCell id="tZiwxAE927Imx5L1TiUG-62" value="" style="rounded=0;whiteSpace=wrap;html=1;" vertex="1" parent="1">
          <mxGeometry x="1375" y="560" width="90" height="40" as="geometry" />
        </mxCell>
        <mxCell id="tZiwxAE927Imx5L1TiUG-70" value="" style="edgeStyle=orthogonalEdgeStyle;rounded=0;orthogonalLoop=1;jettySize=auto;html=1;" edge="1" parent="1" source="tZiwxAE927Imx5L1TiUG-63" target="tZiwxAE927Imx5L1TiUG-64">
          <mxGeometry relative="1" as="geometry" />
        </mxCell>
        <mxCell id="tZiwxAE927Imx5L1TiUG-63" value="" style="rounded=0;whiteSpace=wrap;html=1;" vertex="1" parent="1">
          <mxGeometry x="1500" y="560" width="90" height="40" as="geometry" />
        </mxCell>
        <mxCell id="tZiwxAE927Imx5L1TiUG-71" value="" style="edgeStyle=orthogonalEdgeStyle;rounded=0;orthogonalLoop=1;jettySize=auto;html=1;" edge="1" parent="1" source="tZiwxAE927Imx5L1TiUG-64" target="tZiwxAE927Imx5L1TiUG-65">
          <mxGeometry relative="1" as="geometry" />
        </mxCell>
        <mxCell id="tZiwxAE927Imx5L1TiUG-64" value="" style="rounded=0;whiteSpace=wrap;html=1;" vertex="1" parent="1">
          <mxGeometry x="1630" y="560" width="90" height="40" as="geometry" />
        </mxCell>
        <mxCell id="tZiwxAE927Imx5L1TiUG-65" value="" style="whiteSpace=wrap;html=1;aspect=fixed;" vertex="1" parent="1">
          <mxGeometry x="1760" y="560" width="40" height="40" as="geometry" />
        </mxCell>
        <mxCell id="tZiwxAE927Imx5L1TiUG-72" value="" style="edgeStyle=orthogonalEdgeStyle;rounded=0;orthogonalLoop=1;jettySize=auto;html=1;" edge="1" parent="1" source="tZiwxAE927Imx5L1TiUG-66" target="tZiwxAE927Imx5L1TiUG-62">
          <mxGeometry relative="1" as="geometry" />
        </mxCell>
        <mxCell id="tZiwxAE927Imx5L1TiUG-74" style="edgeStyle=orthogonalEdgeStyle;rounded=0;orthogonalLoop=1;jettySize=auto;html=1;" edge="1" parent="1" source="tZiwxAE927Imx5L1TiUG-66">
          <mxGeometry relative="1" as="geometry">
            <mxPoint x="1480" y="580" as="targetPoint" />
            <Array as="points">
              <mxPoint x="1480" y="655" />
            </Array>
          </mxGeometry>
        </mxCell>
        <mxCell id="tZiwxAE927Imx5L1TiUG-66" value="&lt;font style=&quot;font-size: 16px;&quot; face=&quot;Times New Roman&quot;&gt;Скремблер&lt;/font&gt;" style="rounded=0;whiteSpace=wrap;html=1;" vertex="1" parent="1">
          <mxGeometry x="1375" y="635" width="90" height="40" as="geometry" />
        </mxCell>
        <mxCell id="tZiwxAE927Imx5L1TiUG-73" value="" style="edgeStyle=orthogonalEdgeStyle;rounded=0;orthogonalLoop=1;jettySize=auto;html=1;" edge="1" parent="1" source="tZiwxAE927Imx5L1TiUG-67" target="tZiwxAE927Imx5L1TiUG-64">
          <mxGeometry relative="1" as="geometry" />
        </mxCell>
        <mxCell id="tZiwxAE927Imx5L1TiUG-67" value="&lt;span style=&quot;font-family: &amp;quot;Times New Roman&amp;quot;; font-size: 16px;&quot;&gt;Дескремблер&lt;/span&gt;" style="rounded=0;whiteSpace=wrap;html=1;" vertex="1" parent="1">
          <mxGeometry x="1630" y="635" width="90" height="40" as="geometry" />
        </mxCell>
        <mxCell id="tZiwxAE927Imx5L1TiUG-75" value="" style="endArrow=classic;html=1;rounded=0;entryX=0;entryY=0.5;entryDx=0;entryDy=0;" edge="1" parent="1" target="tZiwxAE927Imx5L1TiUG-67">
          <mxGeometry width="50" height="50" relative="1" as="geometry">
            <mxPoint x="1610" y="580" as="sourcePoint" />
            <mxPoint x="1570" y="650" as="targetPoint" />
            <Array as="points">
              <mxPoint x="1610" y="655" />
            </Array>
          </mxGeometry>
        </mxCell>
        <mxCell id="tZiwxAE927Imx5L1TiUG-77" value="&lt;font style=&quot;font-size: 16px;&quot; face=&quot;Times New Roman&quot;&gt;Микрофон&lt;/font&gt;" style="text;html=1;align=center;verticalAlign=middle;whiteSpace=wrap;rounded=0;" vertex="1" parent="1">
          <mxGeometry x="1285" y="605" width="60" height="30" as="geometry" />
        </mxCell>
        <mxCell id="tZiwxAE927Imx5L1TiUG-78" value="&lt;font face=&quot;Times New Roman&quot;&gt;&lt;span style=&quot;font-size: 16px;&quot;&gt;&lt;br&gt;Канал связи&lt;/span&gt;&lt;/font&gt;" style="text;html=1;align=center;verticalAlign=middle;whiteSpace=wrap;rounded=0;" vertex="1" parent="1">
          <mxGeometry x="1497.5" y="520" width="95" height="30" as="geometry" />
        </mxCell>
        <mxCell id="tZiwxAE927Imx5L1TiUG-79" value="&lt;font face=&quot;Times New Roman&quot;&gt;&lt;span style=&quot;font-size: 16px;&quot;&gt;Память&lt;/span&gt;&lt;/font&gt;" style="text;html=1;align=center;verticalAlign=middle;whiteSpace=wrap;rounded=0;" vertex="1" parent="1">
          <mxGeometry x="1497.5" y="630" width="95" height="30" as="geometry" />
        </mxCell>
        <mxCell id="tZiwxAE927Imx5L1TiUG-81" value="" style="endArrow=none;html=1;rounded=0;entryX=0;entryY=1;entryDx=0;entryDy=0;" edge="1" parent="1" target="tZiwxAE927Imx5L1TiUG-64">
          <mxGeometry width="50" height="50" relative="1" as="geometry">
            <mxPoint x="1570" y="640" as="sourcePoint" />
            <mxPoint x="1620" y="590" as="targetPoint" />
          </mxGeometry>
        </mxCell>
        <mxCell id="tZiwxAE927Imx5L1TiUG-82" value="" style="endArrow=none;html=1;rounded=0;exitX=1;exitY=1;exitDx=0;exitDy=0;" edge="1" parent="1" source="tZiwxAE927Imx5L1TiUG-62">
          <mxGeometry width="50" height="50" relative="1" as="geometry">
            <mxPoint x="1510" y="740" as="sourcePoint" />
            <mxPoint x="1520" y="640" as="targetPoint" />
          </mxGeometry>
        </mxCell>
        <mxCell id="tZiwxAE927Imx5L1TiUG-83" value="&lt;font style=&quot;font-size: 16px;&quot; face=&quot;Times New Roman&quot;&gt;Динамик&lt;/font&gt;" style="text;html=1;align=center;verticalAlign=middle;whiteSpace=wrap;rounded=0;" vertex="1" parent="1">
          <mxGeometry x="1750" y="605" width="60" height="30" as="geometry" />
        </mxCell>
        <mxCell id="tZiwxAE927Imx5L1TiUG-84" value="" style="whiteSpace=wrap;html=1;aspect=fixed;" vertex="1" parent="1">
          <mxGeometry x="1075" y="627.75" width="80" height="80" as="geometry" />
        </mxCell>
        <mxCell id="tZiwxAE927Imx5L1TiUG-85" value="" style="endArrow=none;html=1;rounded=0;" edge="1" parent="1">
          <mxGeometry width="50" height="50" relative="1" as="geometry">
            <mxPoint x="1065" y="542.04" as="sourcePoint" />
            <mxPoint x="1195" y="542.24" as="targetPoint" />
          </mxGeometry>
        </mxCell>
        <mxCell id="tZiwxAE927Imx5L1TiUG-86" value="" style="endArrow=none;html=1;rounded=0;" edge="1" parent="1">
          <mxGeometry width="50" height="50" relative="1" as="geometry">
            <mxPoint x="1065" y="602.04" as="sourcePoint" />
            <mxPoint x="1195" y="602.24" as="targetPoint" />
          </mxGeometry>
        </mxCell>
        <mxCell id="tZiwxAE927Imx5L1TiUG-87" value="" style="endArrow=none;html=1;rounded=0;" edge="1" parent="1">
          <mxGeometry width="50" height="50" relative="1" as="geometry">
            <mxPoint x="1065" y="562.04" as="sourcePoint" />
            <mxPoint x="1195" y="562.24" as="targetPoint" />
          </mxGeometry>
        </mxCell>
        <mxCell id="tZiwxAE927Imx5L1TiUG-88" value="" style="endArrow=none;html=1;rounded=0;" edge="1" parent="1">
          <mxGeometry width="50" height="50" relative="1" as="geometry">
            <mxPoint x="1065" y="582.04" as="sourcePoint" />
            <mxPoint x="1195" y="582.24" as="targetPoint" />
          </mxGeometry>
        </mxCell>
        <mxCell id="tZiwxAE927Imx5L1TiUG-89" value="" style="endArrow=none;html=1;rounded=0;entryX=0;entryY=0.25;entryDx=0;entryDy=0;" edge="1" parent="1">
          <mxGeometry width="50" height="50" relative="1" as="geometry">
            <mxPoint x="1155" y="642.24" as="sourcePoint" />
            <mxPoint x="1195" y="642.24" as="targetPoint" />
          </mxGeometry>
        </mxCell>
        <mxCell id="tZiwxAE927Imx5L1TiUG-90" value="" style="endArrow=none;html=1;rounded=0;entryX=0;entryY=0.75;entryDx=0;entryDy=0;" edge="1" parent="1">
          <mxGeometry width="50" height="50" relative="1" as="geometry">
            <mxPoint x="1155" y="687.75" as="sourcePoint" />
            <mxPoint x="1195" y="687.75" as="targetPoint" />
          </mxGeometry>
        </mxCell>
        <mxCell id="tZiwxAE927Imx5L1TiUG-91" value="" style="endArrow=none;html=1;rounded=0;entryX=0;entryY=0.25;entryDx=0;entryDy=0;" edge="1" parent="1">
          <mxGeometry width="50" height="50" relative="1" as="geometry">
            <mxPoint x="1155" y="657.75" as="sourcePoint" />
            <mxPoint x="1195" y="657.75" as="targetPoint" />
          </mxGeometry>
        </mxCell>
        <mxCell id="tZiwxAE927Imx5L1TiUG-92" value="" style="endArrow=none;html=1;rounded=0;entryX=0;entryY=0.25;entryDx=0;entryDy=0;" edge="1" parent="1">
          <mxGeometry width="50" height="50" relative="1" as="geometry">
            <mxPoint x="1155" y="677.75" as="sourcePoint" />
            <mxPoint x="1195" y="677.75" as="targetPoint" />
          </mxGeometry>
        </mxCell>
        <mxCell id="tZiwxAE927Imx5L1TiUG-93" value="P&lt;span style=&quot;font-size: 10px;&quot;&gt;&lt;sub&gt;4,4&lt;/sub&gt;&lt;/span&gt;" style="text;html=1;align=center;verticalAlign=middle;whiteSpace=wrap;rounded=0;" vertex="1" parent="1">
          <mxGeometry x="1085" y="652.75" width="60" height="30" as="geometry" />
        </mxCell>
        <mxCell id="tZiwxAE927Imx5L1TiUG-94" value="" style="endArrow=none;html=1;rounded=0;entryX=0.25;entryY=1;entryDx=0;entryDy=0;" edge="1" parent="1" target="tZiwxAE927Imx5L1TiUG-84">
          <mxGeometry width="50" height="50" relative="1" as="geometry">
            <mxPoint x="1095" y="747.75" as="sourcePoint" />
            <mxPoint x="1115" y="737.75" as="targetPoint" />
          </mxGeometry>
        </mxCell>
        <mxCell id="tZiwxAE927Imx5L1TiUG-95" value="" style="endArrow=none;html=1;rounded=0;entryX=0.25;entryY=1;entryDx=0;entryDy=0;" edge="1" parent="1">
          <mxGeometry width="50" height="50" relative="1" as="geometry">
            <mxPoint x="1135" y="747.75" as="sourcePoint" />
            <mxPoint x="1135" y="707.75" as="targetPoint" />
          </mxGeometry>
        </mxCell>
        <mxCell id="tZiwxAE927Imx5L1TiUG-96" value="" style="endArrow=none;html=1;rounded=0;entryX=0.25;entryY=1;entryDx=0;entryDy=0;" edge="1" parent="1">
          <mxGeometry width="50" height="50" relative="1" as="geometry">
            <mxPoint x="1105" y="747.75" as="sourcePoint" />
            <mxPoint x="1105" y="707.75" as="targetPoint" />
          </mxGeometry>
        </mxCell>
        <mxCell id="tZiwxAE927Imx5L1TiUG-97" value="" style="endArrow=none;html=1;rounded=0;entryX=0.25;entryY=1;entryDx=0;entryDy=0;" edge="1" parent="1">
          <mxGeometry width="50" height="50" relative="1" as="geometry">
            <mxPoint x="1125" y="747.75" as="sourcePoint" />
            <mxPoint x="1125" y="707.75" as="targetPoint" />
          </mxGeometry>
        </mxCell>
        <mxCell id="tZiwxAE927Imx5L1TiUG-98" value="&lt;font style=&quot;font-size: 10px;&quot;&gt;a&lt;sub style=&quot;&quot;&gt;0&lt;/sub&gt;&lt;/font&gt;" style="text;html=1;align=center;verticalAlign=middle;whiteSpace=wrap;rounded=0;" vertex="1" parent="1">
          <mxGeometry x="1025" y="527.24" width="60" height="30" as="geometry" />
        </mxCell>
        <mxCell id="tZiwxAE927Imx5L1TiUG-99" value="&lt;font style=&quot;font-size: 10px;&quot;&gt;a&lt;sub style=&quot;&quot;&gt;1&lt;/sub&gt;&lt;/font&gt;" style="text;html=1;align=center;verticalAlign=middle;whiteSpace=wrap;rounded=0;" vertex="1" parent="1">
          <mxGeometry x="1025" y="547.24" width="60" height="30" as="geometry" />
        </mxCell>
        <mxCell id="tZiwxAE927Imx5L1TiUG-100" value="&lt;font style=&quot;font-size: 10px;&quot;&gt;a&lt;sub style=&quot;&quot;&gt;2&lt;/sub&gt;&lt;/font&gt;" style="text;html=1;align=center;verticalAlign=middle;whiteSpace=wrap;rounded=0;" vertex="1" parent="1">
          <mxGeometry x="1025" y="567.24" width="60" height="30" as="geometry" />
        </mxCell>
        <mxCell id="tZiwxAE927Imx5L1TiUG-101" value="&lt;font style=&quot;font-size: 10px;&quot;&gt;a&lt;/font&gt;&lt;font style=&quot;font-size: 8.33333px;&quot;&gt;&lt;sub&gt;3&lt;/sub&gt;&lt;/font&gt;" style="text;html=1;align=center;verticalAlign=middle;whiteSpace=wrap;rounded=0;" vertex="1" parent="1">
          <mxGeometry x="1025" y="587.24" width="60" height="30" as="geometry" />
        </mxCell>
        <mxCell id="tZiwxAE927Imx5L1TiUG-102" value="&lt;font style=&quot;font-size: 10px;&quot;&gt;b&lt;sub style=&quot;&quot;&gt;0&lt;/sub&gt;&lt;/font&gt;" style="text;html=1;align=center;verticalAlign=middle;whiteSpace=wrap;rounded=0;" vertex="1" parent="1">
          <mxGeometry x="1175" y="627.75" width="60" height="30" as="geometry" />
        </mxCell>
        <mxCell id="tZiwxAE927Imx5L1TiUG-103" value="&lt;font style=&quot;font-size: 10px;&quot;&gt;b&lt;sub style=&quot;&quot;&gt;1&lt;/sub&gt;&lt;/font&gt;" style="text;html=1;align=center;verticalAlign=middle;whiteSpace=wrap;rounded=0;" vertex="1" parent="1">
          <mxGeometry x="1175" y="642.75" width="60" height="30" as="geometry" />
        </mxCell>
        <mxCell id="tZiwxAE927Imx5L1TiUG-104" value="&lt;font style=&quot;font-size: 10px;&quot;&gt;b&lt;sub style=&quot;&quot;&gt;2&lt;/sub&gt;&lt;/font&gt;" style="text;html=1;align=center;verticalAlign=middle;whiteSpace=wrap;rounded=0;" vertex="1" parent="1">
          <mxGeometry x="1175" y="657.75" width="60" height="30" as="geometry" />
        </mxCell>
        <mxCell id="tZiwxAE927Imx5L1TiUG-105" value="&lt;font style=&quot;&quot;&gt;&lt;sub style=&quot;&quot;&gt;b&lt;span style=&quot;font-size: 8.33333px;&quot;&gt;3&lt;/span&gt;&lt;/sub&gt;&lt;/font&gt;" style="text;html=1;align=center;verticalAlign=middle;whiteSpace=wrap;rounded=0;" vertex="1" parent="1">
          <mxGeometry x="1175" y="672.75" width="60" height="30" as="geometry" />
        </mxCell>
        <mxCell id="tZiwxAE927Imx5L1TiUG-106" value="&lt;font style=&quot;font-size: 10px;&quot;&gt;u&lt;sub style=&quot;&quot;&gt;0&lt;/sub&gt;&lt;/font&gt;" style="text;html=1;align=center;verticalAlign=middle;whiteSpace=wrap;rounded=0;" vertex="1" parent="1">
          <mxGeometry x="1075" y="742.75" width="30" height="30" as="geometry" />
        </mxCell>
        <mxCell id="tZiwxAE927Imx5L1TiUG-107" value="&lt;font style=&quot;font-size: 10px;&quot;&gt;u&lt;sub style=&quot;&quot;&gt;1&lt;/sub&gt;&lt;/font&gt;" style="text;html=1;align=center;verticalAlign=middle;whiteSpace=wrap;rounded=0;" vertex="1" parent="1">
          <mxGeometry x="1095" y="742.75" width="30" height="30" as="geometry" />
        </mxCell>
        <mxCell id="tZiwxAE927Imx5L1TiUG-108" value="&lt;font style=&quot;font-size: 10px;&quot;&gt;u&lt;sub style=&quot;&quot;&gt;2&lt;/sub&gt;&lt;/font&gt;" style="text;html=1;align=center;verticalAlign=middle;whiteSpace=wrap;rounded=0;" vertex="1" parent="1">
          <mxGeometry x="1115" y="742.75" width="30" height="30" as="geometry" />
        </mxCell>
        <mxCell id="tZiwxAE927Imx5L1TiUG-109" value="&lt;font style=&quot;font-size: 10px;&quot;&gt;u&lt;sub style=&quot;&quot;&gt;3&lt;/sub&gt;&lt;/font&gt;" style="text;html=1;align=center;verticalAlign=middle;whiteSpace=wrap;rounded=0;" vertex="1" parent="1">
          <mxGeometry x="1135" y="742.75" width="30" height="30" as="geometry" />
        </mxCell>
        <mxCell id="tZiwxAE927Imx5L1TiUG-110" value="&lt;font style=&quot;font-size: 10px;&quot;&gt;b&lt;sub style=&quot;&quot;&gt;0&lt;/sub&gt;&lt;/font&gt;" style="text;html=1;align=center;verticalAlign=middle;whiteSpace=wrap;rounded=0;" vertex="1" parent="1">
          <mxGeometry x="1195" y="533.49" width="30" height="17.5" as="geometry" />
        </mxCell>
        <mxCell id="tZiwxAE927Imx5L1TiUG-111" value="&lt;font style=&quot;font-size: 10px;&quot;&gt;b&lt;sub style=&quot;&quot;&gt;1&lt;/sub&gt;&lt;/font&gt;" style="text;html=1;align=center;verticalAlign=middle;whiteSpace=wrap;rounded=0;" vertex="1" parent="1">
          <mxGeometry x="1190" y="550.99" width="40" height="22.5" as="geometry" />
        </mxCell>
        <mxCell id="tZiwxAE927Imx5L1TiUG-112" value="&lt;font style=&quot;font-size: 10px;&quot;&gt;b&lt;sub style=&quot;&quot;&gt;2&lt;/sub&gt;&lt;/font&gt;" style="text;html=1;align=center;verticalAlign=middle;whiteSpace=wrap;rounded=0;" vertex="1" parent="1">
          <mxGeometry x="1190" y="573.49" width="40" height="17.5" as="geometry" />
        </mxCell>
        <mxCell id="tZiwxAE927Imx5L1TiUG-113" value="&lt;font style=&quot;&quot;&gt;&lt;sub style=&quot;&quot;&gt;b&lt;span style=&quot;font-size: 8.33333px;&quot;&gt;3&lt;/span&gt;&lt;/sub&gt;&lt;/font&gt;" style="text;html=1;align=center;verticalAlign=middle;whiteSpace=wrap;rounded=0;" vertex="1" parent="1">
          <mxGeometry x="1195" y="595.99" width="30" height="12.5" as="geometry" />
        </mxCell>
        <mxCell id="tZiwxAE927Imx5L1TiUG-118" value="&lt;font style=&quot;font-size: 10px;&quot;&gt;u&lt;sub style=&quot;&quot;&gt;0&lt;/sub&gt;&lt;/font&gt;" style="text;html=1;align=center;verticalAlign=middle;whiteSpace=wrap;rounded=0;" vertex="1" parent="1">
          <mxGeometry x="1065" y="537.24" width="60" height="30" as="geometry" />
        </mxCell>
        <mxCell id="tZiwxAE927Imx5L1TiUG-119" value="&lt;font style=&quot;font-size: 10px;&quot;&gt;u&lt;sub style=&quot;&quot;&gt;1&lt;/sub&gt;&lt;/font&gt;" style="text;html=1;align=center;verticalAlign=middle;whiteSpace=wrap;rounded=0;" vertex="1" parent="1">
          <mxGeometry x="1080" y="577.24" width="60" height="30" as="geometry" />
        </mxCell>
        <mxCell id="tZiwxAE927Imx5L1TiUG-120" value="&lt;font style=&quot;font-size: 10px;&quot;&gt;u&lt;sub style=&quot;&quot;&gt;2&lt;/sub&gt;&lt;/font&gt;" style="text;html=1;align=center;verticalAlign=middle;whiteSpace=wrap;rounded=0;" vertex="1" parent="1">
          <mxGeometry x="1115" y="557.24" width="60" height="30" as="geometry" />
        </mxCell>
        <mxCell id="tZiwxAE927Imx5L1TiUG-121" value="&lt;font style=&quot;font-size: 10px;&quot;&gt;u&lt;sub style=&quot;&quot;&gt;3&lt;/sub&gt;&lt;/font&gt;" style="text;html=1;align=center;verticalAlign=middle;whiteSpace=wrap;rounded=0;" vertex="1" parent="1">
          <mxGeometry x="1165" y="557.24" width="30" height="30" as="geometry" />
        </mxCell>
        <mxCell id="tZiwxAE927Imx5L1TiUG-123" value="R" style="text;html=1;align=center;verticalAlign=middle;whiteSpace=wrap;rounded=0;" vertex="1" parent="1">
          <mxGeometry x="1920" y="205" width="30" height="30" as="geometry" />
        </mxCell>
        <mxCell id="tZiwxAE927Imx5L1TiUG-124" value="" style="shape=orEllipse;perimeter=ellipsePerimeter;whiteSpace=wrap;html=1;backgroundOutline=1;" vertex="1" parent="1">
          <mxGeometry x="2062.5" y="665" width="20" height="20" as="geometry" />
        </mxCell>
        <mxCell id="tZiwxAE927Imx5L1TiUG-128" value="" style="rounded=0;whiteSpace=wrap;html=1;" vertex="1" parent="1">
          <mxGeometry x="2030" y="210" width="20" height="20" as="geometry" />
        </mxCell>
        <mxCell id="tZiwxAE927Imx5L1TiUG-126" value="" style="shape=umlDestroy;whiteSpace=wrap;html=1;strokeWidth=3;targetShapes=umlLifeline;direction=south;rotation=45;" vertex="1" parent="1">
          <mxGeometry x="2032.5" y="212.5" width="15" height="15" as="geometry" />
        </mxCell>
        <mxCell id="tZiwxAE927Imx5L1TiUG-129" value="P&lt;sub&gt;R&lt;/sub&gt;(L)" style="rounded=0;whiteSpace=wrap;html=1;" vertex="1" parent="1">
          <mxGeometry x="2100" y="70" width="60" height="20" as="geometry" />
        </mxCell>
        <mxCell id="tZiwxAE927Imx5L1TiUG-193" value="" style="rounded=0;whiteSpace=wrap;html=1;" vertex="1" parent="1">
          <mxGeometry x="2210" y="210" width="20" height="20" as="geometry" />
        </mxCell>
        <mxCell id="tZiwxAE927Imx5L1TiUG-194" value="" style="shape=umlDestroy;whiteSpace=wrap;html=1;strokeWidth=3;targetShapes=umlLifeline;direction=south;rotation=45;" vertex="1" parent="1">
          <mxGeometry x="2212.5" y="212.5" width="15" height="15" as="geometry" />
        </mxCell>
        <mxCell id="tZiwxAE927Imx5L1TiUG-211" value="" style="shape=orEllipse;perimeter=ellipsePerimeter;whiteSpace=wrap;html=1;backgroundOutline=1;" vertex="1" parent="1">
          <mxGeometry x="2360" y="70" width="20" height="20" as="geometry" />
        </mxCell>
        <mxCell id="tZiwxAE927Imx5L1TiUG-212" value="" style="endArrow=none;html=1;rounded=0;entryX=0.971;entryY=0.971;entryDx=0;entryDy=0;entryPerimeter=0;exitX=1;exitY=0.5;exitDx=0;exitDy=0;" edge="1" parent="1" source="tZiwxAE927Imx5L1TiUG-123" target="tZiwxAE927Imx5L1TiUG-126">
          <mxGeometry width="50" height="50" relative="1" as="geometry">
            <mxPoint x="1950" y="230" as="sourcePoint" />
            <mxPoint x="2000" y="180" as="targetPoint" />
          </mxGeometry>
        </mxCell>
        <mxCell id="tZiwxAE927Imx5L1TiUG-215" value="" style="endArrow=classic;html=1;rounded=0;exitX=1;exitY=0.5;exitDx=0;exitDy=0;entryX=0;entryY=0.5;entryDx=0;entryDy=0;" edge="1" parent="1" source="tZiwxAE927Imx5L1TiUG-128" target="tZiwxAE927Imx5L1TiUG-251">
          <mxGeometry width="50" height="50" relative="1" as="geometry">
            <mxPoint x="2000" y="210" as="sourcePoint" />
            <mxPoint x="2100" y="220" as="targetPoint" />
          </mxGeometry>
        </mxCell>
        <mxCell id="tZiwxAE927Imx5L1TiUG-216" value="" style="endArrow=classic;html=1;rounded=0;exitX=1;exitY=0.5;exitDx=0;exitDy=0;entryX=0;entryY=0.5;entryDx=0;entryDy=0;" edge="1" parent="1">
          <mxGeometry width="50" height="50" relative="1" as="geometry">
            <mxPoint x="2050" y="79.85" as="sourcePoint" />
            <mxPoint x="2100" y="79.85" as="targetPoint" />
          </mxGeometry>
        </mxCell>
        <mxCell id="tZiwxAE927Imx5L1TiUG-217" value="" style="endArrow=classic;html=1;rounded=0;exitX=1;exitY=0.5;exitDx=0;exitDy=0;entryX=0;entryY=0.5;entryDx=0;entryDy=0;" edge="1" parent="1" source="tZiwxAE927Imx5L1TiUG-251">
          <mxGeometry width="50" height="50" relative="1" as="geometry">
            <mxPoint x="2160" y="219.85" as="sourcePoint" />
            <mxPoint x="2210" y="219.85" as="targetPoint" />
          </mxGeometry>
        </mxCell>
        <mxCell id="tZiwxAE927Imx5L1TiUG-218" value="" style="endArrow=none;html=1;rounded=0;entryX=0;entryY=0.5;entryDx=0;entryDy=0;" edge="1" parent="1" target="tZiwxAE927Imx5L1TiUG-256">
          <mxGeometry width="50" height="50" relative="1" as="geometry">
            <mxPoint x="2160" y="80" as="sourcePoint" />
            <mxPoint x="2260" y="80" as="targetPoint" />
          </mxGeometry>
        </mxCell>
        <mxCell id="tZiwxAE927Imx5L1TiUG-220" value="P&lt;sub&gt;L&lt;/sub&gt;(R)" style="rounded=0;whiteSpace=wrap;html=1;" vertex="1" parent="1">
          <mxGeometry x="2260" y="210" width="60" height="20" as="geometry" />
        </mxCell>
        <mxCell id="tZiwxAE927Imx5L1TiUG-221" value="" style="endArrow=classic;html=1;rounded=0;exitX=-0.001;exitY=-0.035;exitDx=0;exitDy=0;exitPerimeter=0;entryX=0;entryY=0.5;entryDx=0;entryDy=0;" edge="1" parent="1" source="tZiwxAE927Imx5L1TiUG-194" target="tZiwxAE927Imx5L1TiUG-220">
          <mxGeometry width="50" height="50" relative="1" as="geometry">
            <mxPoint x="2270" y="210" as="sourcePoint" />
            <mxPoint x="2320" y="160" as="targetPoint" />
          </mxGeometry>
        </mxCell>
        <mxCell id="tZiwxAE927Imx5L1TiUG-226" value="" style="endArrow=classic;html=1;rounded=0;exitX=1;exitY=0.5;exitDx=0;exitDy=0;entryX=0;entryY=0.5;entryDx=0;entryDy=0;" edge="1" parent="1" source="tZiwxAE927Imx5L1TiUG-256" target="tZiwxAE927Imx5L1TiUG-211">
          <mxGeometry width="50" height="50" relative="1" as="geometry">
            <mxPoint x="2320" y="80" as="sourcePoint" />
            <mxPoint x="2450" y="110" as="targetPoint" />
          </mxGeometry>
        </mxCell>
        <mxCell id="tZiwxAE927Imx5L1TiUG-227" value="" style="endArrow=classic;html=1;rounded=0;exitX=1;exitY=0.5;exitDx=0;exitDy=0;" edge="1" parent="1" source="tZiwxAE927Imx5L1TiUG-220">
          <mxGeometry width="50" height="50" relative="1" as="geometry">
            <mxPoint x="2360" y="240" as="sourcePoint" />
            <mxPoint x="2440" y="220" as="targetPoint" />
          </mxGeometry>
        </mxCell>
        <mxCell id="tZiwxAE927Imx5L1TiUG-229" value="" style="endArrow=classic;html=1;rounded=0;exitX=1;exitY=0.5;exitDx=0;exitDy=0;" edge="1" parent="1" source="tZiwxAE927Imx5L1TiUG-211">
          <mxGeometry width="50" height="50" relative="1" as="geometry">
            <mxPoint x="2390" y="90" as="sourcePoint" />
            <mxPoint x="2440" y="80" as="targetPoint" />
          </mxGeometry>
        </mxCell>
        <mxCell id="tZiwxAE927Imx5L1TiUG-230" value="L&#39;" style="text;html=1;align=center;verticalAlign=middle;whiteSpace=wrap;rounded=0;" vertex="1" parent="1">
          <mxGeometry x="2440" y="65" width="30" height="30" as="geometry" />
        </mxCell>
        <mxCell id="tZiwxAE927Imx5L1TiUG-231" value="R&#39;" style="text;html=1;align=center;verticalAlign=middle;whiteSpace=wrap;rounded=0;" vertex="1" parent="1">
          <mxGeometry x="2440" y="205" width="30" height="30" as="geometry" />
        </mxCell>
        <mxCell id="tZiwxAE927Imx5L1TiUG-233" value="" style="endArrow=classic;html=1;rounded=0;entryX=0.029;entryY=0.971;entryDx=0;entryDy=0;entryPerimeter=0;" edge="1" parent="1" target="tZiwxAE927Imx5L1TiUG-126">
          <mxGeometry width="50" height="50" relative="1" as="geometry">
            <mxPoint x="2040" y="170" as="sourcePoint" />
            <mxPoint x="2060" y="160" as="targetPoint" />
          </mxGeometry>
        </mxCell>
        <mxCell id="tZiwxAE927Imx5L1TiUG-234" value="32" style="text;html=1;align=center;verticalAlign=middle;whiteSpace=wrap;rounded=0;" vertex="1" parent="1">
          <mxGeometry x="1950" y="217" width="60" height="30" as="geometry" />
        </mxCell>
        <mxCell id="tZiwxAE927Imx5L1TiUG-235" value="8" style="text;html=1;align=center;verticalAlign=middle;whiteSpace=wrap;rounded=0;" vertex="1" parent="1">
          <mxGeometry x="2015" y="642.75" width="30" height="30" as="geometry" />
        </mxCell>
        <mxCell id="tZiwxAE927Imx5L1TiUG-236" value="8" style="text;html=1;align=center;verticalAlign=middle;whiteSpace=wrap;rounded=0;" vertex="1" parent="1">
          <mxGeometry x="2082.5" y="672.75" width="30" height="30" as="geometry" />
        </mxCell>
        <mxCell id="tZiwxAE927Imx5L1TiUG-237" value="32" style="text;html=1;align=center;verticalAlign=middle;whiteSpace=wrap;rounded=0;" vertex="1" parent="1">
          <mxGeometry x="2040" y="170" width="30" height="30" as="geometry" />
        </mxCell>
        <mxCell id="tZiwxAE927Imx5L1TiUG-238" value="K&lt;sub&gt;1&lt;/sub&gt;" style="text;html=1;align=center;verticalAlign=middle;whiteSpace=wrap;rounded=0;" vertex="1" parent="1">
          <mxGeometry x="2002.5" y="170" width="30" height="30" as="geometry" />
        </mxCell>
        <mxCell id="tZiwxAE927Imx5L1TiUG-239" value="K&lt;sub&gt;0 i&lt;/sub&gt;" style="text;html=1;align=center;verticalAlign=middle;whiteSpace=wrap;rounded=0;" vertex="1" parent="1">
          <mxGeometry x="1985" y="657.75" width="30" height="30" as="geometry" />
        </mxCell>
        <mxCell id="tZiwxAE927Imx5L1TiUG-240" value="mod 2&lt;sup&gt;32&lt;/sup&gt;" style="text;html=1;align=center;verticalAlign=middle;whiteSpace=wrap;rounded=0;" vertex="1" parent="1">
          <mxGeometry x="2018" y="227.5" width="50" height="30" as="geometry" />
        </mxCell>
        <mxCell id="tZiwxAE927Imx5L1TiUG-242" value="32" style="text;html=1;align=center;verticalAlign=middle;whiteSpace=wrap;rounded=0;" vertex="1" parent="1">
          <mxGeometry x="2175" y="50" width="30" height="30" as="geometry" />
        </mxCell>
        <mxCell id="tZiwxAE927Imx5L1TiUG-243" value="mod 2&lt;sup&gt;32&lt;/sup&gt;" style="text;html=1;align=center;verticalAlign=middle;whiteSpace=wrap;rounded=0;" vertex="1" parent="1">
          <mxGeometry x="2195" y="230" width="50" height="30" as="geometry" />
        </mxCell>
        <mxCell id="tZiwxAE927Imx5L1TiUG-244" value="mod 2" style="text;html=1;align=center;verticalAlign=middle;whiteSpace=wrap;rounded=0;" vertex="1" parent="1">
          <mxGeometry x="2345" y="40" width="50" height="30" as="geometry" />
        </mxCell>
        <mxCell id="tZiwxAE927Imx5L1TiUG-246" value="P block" style="text;html=1;align=center;verticalAlign=middle;whiteSpace=wrap;rounded=0;" vertex="1" parent="1">
          <mxGeometry x="2107.5" y="40" width="45" height="30" as="geometry" />
        </mxCell>
        <mxCell id="tZiwxAE927Imx5L1TiUG-248" value="P block" style="text;html=1;align=center;verticalAlign=middle;whiteSpace=wrap;rounded=0;" vertex="1" parent="1">
          <mxGeometry x="2267.5" y="230" width="45" height="30" as="geometry" />
        </mxCell>
        <mxCell id="tZiwxAE927Imx5L1TiUG-249" value="32" style="text;html=1;align=center;verticalAlign=middle;whiteSpace=wrap;rounded=0;" vertex="1" parent="1">
          <mxGeometry x="2410" y="50" width="30" height="30" as="geometry" />
        </mxCell>
        <mxCell id="tZiwxAE927Imx5L1TiUG-250" value="32" style="text;html=1;align=center;verticalAlign=middle;whiteSpace=wrap;rounded=0;" vertex="1" parent="1">
          <mxGeometry x="2410" y="217" width="30" height="30" as="geometry" />
        </mxCell>
        <mxCell id="tZiwxAE927Imx5L1TiUG-251" value="" style="rounded=0;whiteSpace=wrap;html=1;" vertex="1" parent="1">
          <mxGeometry x="2090" y="195" width="80" height="50" as="geometry" />
        </mxCell>
        <mxCell id="tZiwxAE927Imx5L1TiUG-252" value="" style="endArrow=classic;html=1;rounded=0;exitX=0.002;exitY=0.172;exitDx=0;exitDy=0;exitPerimeter=0;entryX=1.006;entryY=0.172;entryDx=0;entryDy=0;entryPerimeter=0;" edge="1" parent="1" source="tZiwxAE927Imx5L1TiUG-251" target="tZiwxAE927Imx5L1TiUG-251">
          <mxGeometry width="50" height="50" relative="1" as="geometry">
            <mxPoint x="1980" y="295" as="sourcePoint" />
            <mxPoint x="2030" y="245" as="targetPoint" />
          </mxGeometry>
        </mxCell>
        <mxCell id="tZiwxAE927Imx5L1TiUG-253" value="" style="endArrow=classic;html=1;rounded=0;exitX=0.007;exitY=0.808;exitDx=0;exitDy=0;exitPerimeter=0;" edge="1" parent="1" source="tZiwxAE927Imx5L1TiUG-251">
          <mxGeometry width="50" height="50" relative="1" as="geometry">
            <mxPoint x="2070" y="235" as="sourcePoint" />
            <mxPoint x="2170" y="235" as="targetPoint" />
          </mxGeometry>
        </mxCell>
        <mxCell id="tZiwxAE927Imx5L1TiUG-254" value="" style="endArrow=classic;html=1;rounded=0;" edge="1" parent="1">
          <mxGeometry width="50" height="50" relative="1" as="geometry">
            <mxPoint x="2090" y="225" as="sourcePoint" />
            <mxPoint x="2170" y="225" as="targetPoint" />
          </mxGeometry>
        </mxCell>
        <mxCell id="tZiwxAE927Imx5L1TiUG-255" value="" style="endArrow=classic;html=1;rounded=0;entryX=0.998;entryY=0.386;entryDx=0;entryDy=0;entryPerimeter=0;exitX=0.005;exitY=0.395;exitDx=0;exitDy=0;exitPerimeter=0;" edge="1" parent="1" source="tZiwxAE927Imx5L1TiUG-251" target="tZiwxAE927Imx5L1TiUG-251">
          <mxGeometry width="50" height="50" relative="1" as="geometry">
            <mxPoint x="2090" y="214" as="sourcePoint" />
            <mxPoint x="2160" y="215" as="targetPoint" />
          </mxGeometry>
        </mxCell>
        <mxCell id="tZiwxAE927Imx5L1TiUG-189" value="" style="endArrow=classic;html=1;rounded=0;entryX=0.162;entryY=1.006;entryDx=0;entryDy=0;entryPerimeter=0;" edge="1" parent="1" target="tZiwxAE927Imx5L1TiUG-129">
          <mxGeometry width="50" height="50" relative="1" as="geometry">
            <mxPoint x="2110" y="204.78" as="sourcePoint" />
            <mxPoint x="2109.42" y="95" as="targetPoint" />
          </mxGeometry>
        </mxCell>
        <mxCell id="tZiwxAE927Imx5L1TiUG-190" value="" style="endArrow=classic;html=1;rounded=0;exitX=0.376;exitY=0.081;exitDx=0;exitDy=0;exitPerimeter=0;entryX=0.333;entryY=1.054;entryDx=0;entryDy=0;entryPerimeter=0;" edge="1" parent="1" target="tZiwxAE927Imx5L1TiUG-129">
          <mxGeometry width="50" height="50" relative="1" as="geometry">
            <mxPoint x="2120.48" y="215.827" as="sourcePoint" />
            <mxPoint x="2120" y="95.00000000000001" as="targetPoint" />
          </mxGeometry>
        </mxCell>
        <mxCell id="tZiwxAE927Imx5L1TiUG-191" value="" style="endArrow=classic;html=1;rounded=0;exitX=0.376;exitY=0.081;exitDx=0;exitDy=0;exitPerimeter=0;entryX=0.587;entryY=1.082;entryDx=0;entryDy=0;entryPerimeter=0;" edge="1" parent="1" target="tZiwxAE927Imx5L1TiUG-129">
          <mxGeometry width="50" height="50" relative="1" as="geometry">
            <mxPoint x="2134.54" y="227.5" as="sourcePoint" />
            <mxPoint x="2135.46" y="106.52000000000001" as="targetPoint" />
          </mxGeometry>
        </mxCell>
        <mxCell id="tZiwxAE927Imx5L1TiUG-192" value="" style="endArrow=classic;html=1;rounded=0;exitX=0.376;exitY=0.081;exitDx=0;exitDy=0;exitPerimeter=0;entryX=0.832;entryY=1.096;entryDx=0;entryDy=0;entryPerimeter=0;" edge="1" parent="1" target="tZiwxAE927Imx5L1TiUG-129">
          <mxGeometry width="50" height="50" relative="1" as="geometry">
            <mxPoint x="2150" y="235" as="sourcePoint" />
            <mxPoint x="2148.7999999999997" y="115.20000000000002" as="targetPoint" />
          </mxGeometry>
        </mxCell>
        <mxCell id="tZiwxAE927Imx5L1TiUG-256" value="" style="rounded=0;whiteSpace=wrap;html=1;" vertex="1" parent="1">
          <mxGeometry x="2249.76" y="55" width="80" height="50" as="geometry" />
        </mxCell>
        <mxCell id="tZiwxAE927Imx5L1TiUG-257" value="" style="endArrow=classic;html=1;rounded=0;exitX=0.002;exitY=0.172;exitDx=0;exitDy=0;exitPerimeter=0;entryX=1.006;entryY=0.172;entryDx=0;entryDy=0;entryPerimeter=0;" edge="1" source="tZiwxAE927Imx5L1TiUG-256" target="tZiwxAE927Imx5L1TiUG-256" parent="1">
          <mxGeometry width="50" height="50" relative="1" as="geometry">
            <mxPoint x="2139.76" y="155" as="sourcePoint" />
            <mxPoint x="2189.76" y="105" as="targetPoint" />
          </mxGeometry>
        </mxCell>
        <mxCell id="tZiwxAE927Imx5L1TiUG-258" value="" style="endArrow=classic;html=1;rounded=0;exitX=0.007;exitY=0.808;exitDx=0;exitDy=0;exitPerimeter=0;" edge="1" source="tZiwxAE927Imx5L1TiUG-256" parent="1">
          <mxGeometry width="50" height="50" relative="1" as="geometry">
            <mxPoint x="2229.76" y="95" as="sourcePoint" />
            <mxPoint x="2329.76" y="95" as="targetPoint" />
          </mxGeometry>
        </mxCell>
        <mxCell id="tZiwxAE927Imx5L1TiUG-259" value="" style="endArrow=classic;html=1;rounded=0;" edge="1" parent="1">
          <mxGeometry width="50" height="50" relative="1" as="geometry">
            <mxPoint x="2249.76" y="85" as="sourcePoint" />
            <mxPoint x="2329.76" y="85" as="targetPoint" />
          </mxGeometry>
        </mxCell>
        <mxCell id="tZiwxAE927Imx5L1TiUG-260" value="" style="endArrow=classic;html=1;rounded=0;entryX=0.998;entryY=0.386;entryDx=0;entryDy=0;entryPerimeter=0;exitX=0.005;exitY=0.395;exitDx=0;exitDy=0;exitPerimeter=0;" edge="1" source="tZiwxAE927Imx5L1TiUG-256" target="tZiwxAE927Imx5L1TiUG-256" parent="1">
          <mxGeometry width="50" height="50" relative="1" as="geometry">
            <mxPoint x="2249.76" y="74" as="sourcePoint" />
            <mxPoint x="2319.76" y="75" as="targetPoint" />
          </mxGeometry>
        </mxCell>
        <mxCell id="tZiwxAE927Imx5L1TiUG-222" value="" style="endArrow=classic;html=1;rounded=0;exitX=0.105;exitY=1.064;exitDx=0;exitDy=0;exitPerimeter=0;entryX=0.119;entryY=-0.019;entryDx=0;entryDy=0;entryPerimeter=0;" edge="1" parent="1" target="tZiwxAE927Imx5L1TiUG-220">
          <mxGeometry width="50" height="50" relative="1" as="geometry">
            <mxPoint x="2267.5" y="94.99800000000003" as="sourcePoint" />
            <mxPoint x="2267.74" y="214.17000000000002" as="targetPoint" />
          </mxGeometry>
        </mxCell>
        <mxCell id="tZiwxAE927Imx5L1TiUG-223" value="" style="endArrow=classic;html=1;rounded=0;exitX=0.105;exitY=1.064;exitDx=0;exitDy=0;exitPerimeter=0;entryX=0.34;entryY=-0.019;entryDx=0;entryDy=0;entryPerimeter=0;" edge="1" parent="1" target="tZiwxAE927Imx5L1TiUG-220">
          <mxGeometry width="50" height="50" relative="1" as="geometry">
            <mxPoint x="2279.7" y="85" as="sourcePoint" />
            <mxPoint x="2280.7" y="205" as="targetPoint" />
          </mxGeometry>
        </mxCell>
        <mxCell id="tZiwxAE927Imx5L1TiUG-224" value="" style="endArrow=classic;html=1;rounded=0;exitX=0.105;exitY=1.064;exitDx=0;exitDy=0;exitPerimeter=0;entryX=0.664;entryY=-0.085;entryDx=0;entryDy=0;entryPerimeter=0;" edge="1" parent="1" target="tZiwxAE927Imx5L1TiUG-220">
          <mxGeometry width="50" height="50" relative="1" as="geometry">
            <mxPoint x="2300" y="75" as="sourcePoint" />
            <mxPoint x="2300" y="195" as="targetPoint" />
          </mxGeometry>
        </mxCell>
        <mxCell id="tZiwxAE927Imx5L1TiUG-225" value="" style="endArrow=classic;html=1;rounded=0;exitX=0.105;exitY=1.064;exitDx=0;exitDy=0;exitPerimeter=0;entryX=0.876;entryY=-0.068;entryDx=0;entryDy=0;entryPerimeter=0;" edge="1" parent="1" target="tZiwxAE927Imx5L1TiUG-220">
          <mxGeometry width="50" height="50" relative="1" as="geometry">
            <mxPoint x="2312.5" y="65" as="sourcePoint" />
            <mxPoint x="2312.5" y="185" as="targetPoint" />
          </mxGeometry>
        </mxCell>
        <mxCell id="tZiwxAE927Imx5L1TiUG-263" value="" style="endArrow=classic;html=1;rounded=0;" edge="1" parent="1">
          <mxGeometry width="50" height="50" relative="1" as="geometry">
            <mxPoint x="2370" y="220" as="sourcePoint" />
            <mxPoint x="2370" y="90" as="targetPoint" />
          </mxGeometry>
        </mxCell>
        <mxCell id="tZiwxAE927Imx5L1TiUG-265" value="" style="endArrow=classic;html=1;rounded=0;" edge="1" parent="1">
          <mxGeometry width="50" height="50" relative="1" as="geometry">
            <mxPoint x="2220" y="80" as="sourcePoint" />
            <mxPoint x="2220" y="210" as="targetPoint" />
          </mxGeometry>
        </mxCell>
        <mxCell id="tZiwxAE927Imx5L1TiUG-266" value="L&#39;" style="text;html=1;align=center;verticalAlign=middle;whiteSpace=wrap;rounded=0;" vertex="1" parent="1">
          <mxGeometry x="1920" y="280" width="30" height="30" as="geometry" />
        </mxCell>
        <mxCell id="tZiwxAE927Imx5L1TiUG-267" value="R&#39;" style="text;html=1;align=center;verticalAlign=middle;whiteSpace=wrap;rounded=0;" vertex="1" parent="1">
          <mxGeometry x="1920" y="420" width="30" height="30" as="geometry" />
        </mxCell>
        <mxCell id="tZiwxAE927Imx5L1TiUG-268" value="" style="shape=orEllipse;perimeter=ellipsePerimeter;whiteSpace=wrap;html=1;backgroundOutline=1;" vertex="1" parent="1">
          <mxGeometry x="1982.5" y="285" width="20" height="20" as="geometry" />
        </mxCell>
        <mxCell id="tZiwxAE927Imx5L1TiUG-269" value="" style="endArrow=classic;html=1;rounded=0;exitX=1;exitY=0.5;exitDx=0;exitDy=0;entryX=0;entryY=0.5;entryDx=0;entryDy=0;" edge="1" target="tZiwxAE927Imx5L1TiUG-268" parent="1">
          <mxGeometry width="50" height="50" relative="1" as="geometry">
            <mxPoint x="1952.5" y="295" as="sourcePoint" />
            <mxPoint x="2072.5" y="325" as="targetPoint" />
            <Array as="points">
              <mxPoint x="1960" y="295" />
            </Array>
          </mxGeometry>
        </mxCell>
        <mxCell id="tZiwxAE927Imx5L1TiUG-270" value="" style="endArrow=classic;html=1;rounded=0;exitX=1;exitY=0.5;exitDx=0;exitDy=0;entryX=0;entryY=0.5;entryDx=0;entryDy=0;" edge="1" parent="1" target="tZiwxAE927Imx5L1TiUG-279">
          <mxGeometry width="50" height="50" relative="1" as="geometry">
            <mxPoint x="1962.5" y="434.74" as="sourcePoint" />
            <mxPoint x="2022.5" y="434.74" as="targetPoint" />
          </mxGeometry>
        </mxCell>
        <mxCell id="tZiwxAE927Imx5L1TiUG-271" value="" style="endArrow=classic;html=1;rounded=0;" edge="1" parent="1">
          <mxGeometry width="50" height="50" relative="1" as="geometry">
            <mxPoint x="1992.24" y="435" as="sourcePoint" />
            <mxPoint x="1992.24" y="305" as="targetPoint" />
          </mxGeometry>
        </mxCell>
        <mxCell id="tZiwxAE927Imx5L1TiUG-273" value="" style="rounded=0;whiteSpace=wrap;html=1;" vertex="1" parent="1">
          <mxGeometry x="2032.5000000000002" y="270" width="80" height="50" as="geometry" />
        </mxCell>
        <mxCell id="tZiwxAE927Imx5L1TiUG-274" value="" style="endArrow=classic;html=1;rounded=0;exitX=0.002;exitY=0.172;exitDx=0;exitDy=0;exitPerimeter=0;entryX=1.006;entryY=0.172;entryDx=0;entryDy=0;entryPerimeter=0;" edge="1" source="tZiwxAE927Imx5L1TiUG-273" target="tZiwxAE927Imx5L1TiUG-273" parent="1">
          <mxGeometry width="50" height="50" relative="1" as="geometry">
            <mxPoint x="1922.5000000000002" y="370" as="sourcePoint" />
            <mxPoint x="1972.5000000000002" y="320" as="targetPoint" />
          </mxGeometry>
        </mxCell>
        <mxCell id="tZiwxAE927Imx5L1TiUG-275" value="" style="endArrow=classic;html=1;rounded=0;exitX=0.007;exitY=0.808;exitDx=0;exitDy=0;exitPerimeter=0;" edge="1" source="tZiwxAE927Imx5L1TiUG-273" parent="1">
          <mxGeometry width="50" height="50" relative="1" as="geometry">
            <mxPoint x="2012.5000000000002" y="310" as="sourcePoint" />
            <mxPoint x="2112.5" y="310" as="targetPoint" />
          </mxGeometry>
        </mxCell>
        <mxCell id="tZiwxAE927Imx5L1TiUG-276" value="" style="endArrow=classic;html=1;rounded=0;" edge="1" parent="1">
          <mxGeometry width="50" height="50" relative="1" as="geometry">
            <mxPoint x="2032.5000000000002" y="300" as="sourcePoint" />
            <mxPoint x="2112.5" y="300" as="targetPoint" />
          </mxGeometry>
        </mxCell>
        <mxCell id="tZiwxAE927Imx5L1TiUG-277" value="" style="endArrow=classic;html=1;rounded=0;entryX=0.998;entryY=0.386;entryDx=0;entryDy=0;entryPerimeter=0;exitX=0.005;exitY=0.395;exitDx=0;exitDy=0;exitPerimeter=0;" edge="1" source="tZiwxAE927Imx5L1TiUG-273" target="tZiwxAE927Imx5L1TiUG-273" parent="1">
          <mxGeometry width="50" height="50" relative="1" as="geometry">
            <mxPoint x="2032.5000000000002" y="289" as="sourcePoint" />
            <mxPoint x="2102.5" y="290" as="targetPoint" />
          </mxGeometry>
        </mxCell>
        <mxCell id="tZiwxAE927Imx5L1TiUG-278" value="" style="endArrow=classic;html=1;rounded=0;exitX=1;exitY=0.5;exitDx=0;exitDy=0;entryX=0;entryY=0.5;entryDx=0;entryDy=0;" edge="1" parent="1">
          <mxGeometry width="50" height="50" relative="1" as="geometry">
            <mxPoint x="2002.5" y="294.74" as="sourcePoint" />
            <mxPoint x="2033" y="294.74" as="targetPoint" />
            <Array as="points">
              <mxPoint x="2010" y="294.74" />
            </Array>
          </mxGeometry>
        </mxCell>
        <mxCell id="tZiwxAE927Imx5L1TiUG-279" value="P&lt;sub&gt;L&lt;/sub&gt;(R)" style="rounded=0;whiteSpace=wrap;html=1;" vertex="1" parent="1">
          <mxGeometry x="2042.5" y="425" width="60" height="20" as="geometry" />
        </mxCell>
        <mxCell id="tZiwxAE927Imx5L1TiUG-280" value="" style="endArrow=classic;html=1;rounded=0;exitX=0.105;exitY=1.064;exitDx=0;exitDy=0;exitPerimeter=0;entryX=0.119;entryY=-0.019;entryDx=0;entryDy=0;entryPerimeter=0;" edge="1" parent="1">
          <mxGeometry width="50" height="50" relative="1" as="geometry">
            <mxPoint x="2050.36" y="309.99800000000005" as="sourcePoint" />
            <mxPoint x="2049.86" y="425" as="targetPoint" />
          </mxGeometry>
        </mxCell>
        <mxCell id="tZiwxAE927Imx5L1TiUG-281" value="" style="endArrow=classic;html=1;rounded=0;entryX=0.34;entryY=-0.019;entryDx=0;entryDy=0;entryPerimeter=0;" edge="1" parent="1">
          <mxGeometry width="50" height="50" relative="1" as="geometry">
            <mxPoint x="2065" y="300" as="sourcePoint" />
            <mxPoint x="2064.6" y="425.38" as="targetPoint" />
          </mxGeometry>
        </mxCell>
        <mxCell id="tZiwxAE927Imx5L1TiUG-282" value="" style="endArrow=classic;html=1;rounded=0;entryX=0.664;entryY=-0.085;entryDx=0;entryDy=0;entryPerimeter=0;" edge="1" parent="1">
          <mxGeometry width="50" height="50" relative="1" as="geometry">
            <mxPoint x="2080" y="290" as="sourcePoint" />
            <mxPoint x="2079.9" y="424.7" as="targetPoint" />
          </mxGeometry>
        </mxCell>
        <mxCell id="tZiwxAE927Imx5L1TiUG-283" value="" style="endArrow=classic;html=1;rounded=0;entryX=0.876;entryY=-0.068;entryDx=0;entryDy=0;entryPerimeter=0;" edge="1" parent="1">
          <mxGeometry width="50" height="50" relative="1" as="geometry">
            <mxPoint x="2095" y="280" as="sourcePoint" />
            <mxPoint x="2095.24" y="424" as="targetPoint" />
          </mxGeometry>
        </mxCell>
        <mxCell id="tZiwxAE927Imx5L1TiUG-284" value="" style="rounded=0;whiteSpace=wrap;html=1;" vertex="1" parent="1">
          <mxGeometry x="2142.5" y="425" width="20" height="20" as="geometry" />
        </mxCell>
        <mxCell id="tZiwxAE927Imx5L1TiUG-285" value="" style="shape=umlDestroy;whiteSpace=wrap;html=1;strokeWidth=3;targetShapes=umlLifeline;direction=south;rotation=45;" vertex="1" parent="1">
          <mxGeometry x="2145" y="427.5" width="15" height="15" as="geometry" />
        </mxCell>
        <mxCell id="tZiwxAE927Imx5L1TiUG-286" value="" style="endArrow=classic;html=1;rounded=0;exitX=1;exitY=0.5;exitDx=0;exitDy=0;entryX=0;entryY=0.5;entryDx=0;entryDy=0;" edge="1" parent="1">
          <mxGeometry width="50" height="50" relative="1" as="geometry">
            <mxPoint x="2102.5" y="435" as="sourcePoint" />
            <mxPoint x="2142.5" y="434.85" as="targetPoint" />
          </mxGeometry>
        </mxCell>
        <mxCell id="tZiwxAE927Imx5L1TiUG-287" value="" style="endArrow=classic;html=1;rounded=0;exitX=-0.001;exitY=-0.035;exitDx=0;exitDy=0;exitPerimeter=0;entryX=0.003;entryY=0.464;entryDx=0;entryDy=0;entryPerimeter=0;" edge="1" source="tZiwxAE927Imx5L1TiUG-285" parent="1" target="tZiwxAE927Imx5L1TiUG-291">
          <mxGeometry width="50" height="50" relative="1" as="geometry">
            <mxPoint x="2202.5" y="425" as="sourcePoint" />
            <mxPoint x="2192.5" y="435" as="targetPoint" />
          </mxGeometry>
        </mxCell>
        <mxCell id="tZiwxAE927Imx5L1TiUG-288" value="mod 2&lt;sup&gt;32&lt;/sup&gt;" style="text;html=1;align=center;verticalAlign=middle;whiteSpace=wrap;rounded=0;" vertex="1" parent="1">
          <mxGeometry x="2127.5" y="445" width="50" height="30" as="geometry" />
        </mxCell>
        <mxCell id="tZiwxAE927Imx5L1TiUG-289" value="P&lt;sub&gt;R&lt;/sub&gt;(L)" style="rounded=0;whiteSpace=wrap;html=1;" vertex="1" parent="1">
          <mxGeometry x="2205" y="287.5" width="60" height="20" as="geometry" />
        </mxCell>
        <mxCell id="tZiwxAE927Imx5L1TiUG-290" value="P block" style="text;html=1;align=center;verticalAlign=middle;whiteSpace=wrap;rounded=0;" vertex="1" parent="1">
          <mxGeometry x="2212.5" y="257.5" width="45" height="30" as="geometry" />
        </mxCell>
        <mxCell id="tZiwxAE927Imx5L1TiUG-291" value="" style="rounded=0;whiteSpace=wrap;html=1;" vertex="1" parent="1">
          <mxGeometry x="2195" y="412.5" width="80" height="50" as="geometry" />
        </mxCell>
        <mxCell id="tZiwxAE927Imx5L1TiUG-292" value="" style="endArrow=classic;html=1;rounded=0;exitX=0.002;exitY=0.172;exitDx=0;exitDy=0;exitPerimeter=0;entryX=1.006;entryY=0.172;entryDx=0;entryDy=0;entryPerimeter=0;" edge="1" source="tZiwxAE927Imx5L1TiUG-291" target="tZiwxAE927Imx5L1TiUG-291" parent="1">
          <mxGeometry width="50" height="50" relative="1" as="geometry">
            <mxPoint x="2085" y="512.5" as="sourcePoint" />
            <mxPoint x="2135" y="462.5" as="targetPoint" />
          </mxGeometry>
        </mxCell>
        <mxCell id="tZiwxAE927Imx5L1TiUG-293" value="" style="endArrow=classic;html=1;rounded=0;exitX=0.007;exitY=0.808;exitDx=0;exitDy=0;exitPerimeter=0;" edge="1" source="tZiwxAE927Imx5L1TiUG-291" parent="1">
          <mxGeometry width="50" height="50" relative="1" as="geometry">
            <mxPoint x="2175" y="452.5" as="sourcePoint" />
            <mxPoint x="2275" y="452.5" as="targetPoint" />
          </mxGeometry>
        </mxCell>
        <mxCell id="tZiwxAE927Imx5L1TiUG-294" value="" style="endArrow=classic;html=1;rounded=0;" edge="1" parent="1">
          <mxGeometry width="50" height="50" relative="1" as="geometry">
            <mxPoint x="2195" y="442.5" as="sourcePoint" />
            <mxPoint x="2275" y="442.5" as="targetPoint" />
          </mxGeometry>
        </mxCell>
        <mxCell id="tZiwxAE927Imx5L1TiUG-295" value="" style="endArrow=classic;html=1;rounded=0;entryX=0.998;entryY=0.386;entryDx=0;entryDy=0;entryPerimeter=0;exitX=0.005;exitY=0.395;exitDx=0;exitDy=0;exitPerimeter=0;" edge="1" source="tZiwxAE927Imx5L1TiUG-291" target="tZiwxAE927Imx5L1TiUG-291" parent="1">
          <mxGeometry width="50" height="50" relative="1" as="geometry">
            <mxPoint x="2195" y="431.5" as="sourcePoint" />
            <mxPoint x="2265" y="432.5" as="targetPoint" />
          </mxGeometry>
        </mxCell>
        <mxCell id="tZiwxAE927Imx5L1TiUG-296" value="" style="endArrow=classic;html=1;rounded=0;entryX=0.162;entryY=1.006;entryDx=0;entryDy=0;entryPerimeter=0;" edge="1" target="tZiwxAE927Imx5L1TiUG-289" parent="1">
          <mxGeometry width="50" height="50" relative="1" as="geometry">
            <mxPoint x="2215" y="422.28" as="sourcePoint" />
            <mxPoint x="2214.42" y="312.5" as="targetPoint" />
          </mxGeometry>
        </mxCell>
        <mxCell id="tZiwxAE927Imx5L1TiUG-297" value="" style="endArrow=classic;html=1;rounded=0;exitX=0.376;exitY=0.081;exitDx=0;exitDy=0;exitPerimeter=0;entryX=0.333;entryY=1.054;entryDx=0;entryDy=0;entryPerimeter=0;" edge="1" target="tZiwxAE927Imx5L1TiUG-289" parent="1">
          <mxGeometry width="50" height="50" relative="1" as="geometry">
            <mxPoint x="2225.48" y="433.327" as="sourcePoint" />
            <mxPoint x="2225" y="312.5" as="targetPoint" />
          </mxGeometry>
        </mxCell>
        <mxCell id="tZiwxAE927Imx5L1TiUG-298" value="" style="endArrow=classic;html=1;rounded=0;exitX=0.376;exitY=0.081;exitDx=0;exitDy=0;exitPerimeter=0;entryX=0.587;entryY=1.082;entryDx=0;entryDy=0;entryPerimeter=0;" edge="1" target="tZiwxAE927Imx5L1TiUG-289" parent="1">
          <mxGeometry width="50" height="50" relative="1" as="geometry">
            <mxPoint x="2239.54" y="445" as="sourcePoint" />
            <mxPoint x="2240.46" y="324.02" as="targetPoint" />
          </mxGeometry>
        </mxCell>
        <mxCell id="tZiwxAE927Imx5L1TiUG-299" value="" style="endArrow=classic;html=1;rounded=0;exitX=0.376;exitY=0.081;exitDx=0;exitDy=0;exitPerimeter=0;entryX=0.832;entryY=1.096;entryDx=0;entryDy=0;entryPerimeter=0;" edge="1" target="tZiwxAE927Imx5L1TiUG-289" parent="1">
          <mxGeometry width="50" height="50" relative="1" as="geometry">
            <mxPoint x="2255" y="452.5" as="sourcePoint" />
            <mxPoint x="2253.7999999999997" y="332.70000000000005" as="targetPoint" />
          </mxGeometry>
        </mxCell>
        <mxCell id="tZiwxAE927Imx5L1TiUG-300" value="" style="endArrow=none;html=1;rounded=0;entryX=0;entryY=0.5;entryDx=0;entryDy=0;" edge="1" parent="1">
          <mxGeometry width="50" height="50" relative="1" as="geometry">
            <mxPoint x="2112.5" y="297.28" as="sourcePoint" />
            <mxPoint x="2202.5" y="297.28" as="targetPoint" />
          </mxGeometry>
        </mxCell>
        <mxCell id="tZiwxAE927Imx5L1TiUG-301" value="" style="endArrow=classic;html=1;rounded=0;" edge="1" parent="1">
          <mxGeometry width="50" height="50" relative="1" as="geometry">
            <mxPoint x="2152.5" y="297.5" as="sourcePoint" />
            <mxPoint x="2152.5" y="427.5" as="targetPoint" />
          </mxGeometry>
        </mxCell>
        <mxCell id="tZiwxAE927Imx5L1TiUG-302" value="" style="shape=orEllipse;perimeter=ellipsePerimeter;whiteSpace=wrap;html=1;backgroundOutline=1;" vertex="1" parent="1">
          <mxGeometry x="2322" y="290" width="20" height="20" as="geometry" />
        </mxCell>
        <mxCell id="tZiwxAE927Imx5L1TiUG-303" value="" style="endArrow=classic;html=1;rounded=0;entryX=0.5;entryY=1;entryDx=0;entryDy=0;" edge="1" target="tZiwxAE927Imx5L1TiUG-302" parent="1">
          <mxGeometry width="50" height="50" relative="1" as="geometry">
            <mxPoint x="2332" y="350" as="sourcePoint" />
            <mxPoint x="2372" y="340" as="targetPoint" />
          </mxGeometry>
        </mxCell>
        <mxCell id="tZiwxAE927Imx5L1TiUG-304" value="32" style="text;html=1;align=center;verticalAlign=middle;whiteSpace=wrap;rounded=0;" vertex="1" parent="1">
          <mxGeometry x="2330" y="310" width="30" height="30" as="geometry" />
        </mxCell>
        <mxCell id="tZiwxAE927Imx5L1TiUG-305" value="K&lt;sub&gt;0&lt;/sub&gt;" style="text;html=1;align=center;verticalAlign=middle;whiteSpace=wrap;rounded=0;" vertex="1" parent="1">
          <mxGeometry x="2294.5" y="320" width="30" height="30" as="geometry" />
        </mxCell>
        <mxCell id="tZiwxAE927Imx5L1TiUG-306" value="mod 2" style="text;html=1;align=center;verticalAlign=middle;whiteSpace=wrap;rounded=0;" vertex="1" parent="1">
          <mxGeometry x="2307" y="260" width="50" height="30" as="geometry" />
        </mxCell>
        <mxCell id="tZiwxAE927Imx5L1TiUG-307" value="" style="rounded=0;whiteSpace=wrap;html=1;" vertex="1" parent="1">
          <mxGeometry x="2322" y="427.5" width="20" height="20" as="geometry" />
        </mxCell>
        <mxCell id="tZiwxAE927Imx5L1TiUG-308" value="" style="shape=umlDestroy;whiteSpace=wrap;html=1;strokeWidth=3;targetShapes=umlLifeline;direction=south;rotation=45;" vertex="1" parent="1">
          <mxGeometry x="2324.5" y="430" width="15" height="15" as="geometry" />
        </mxCell>
        <mxCell id="tZiwxAE927Imx5L1TiUG-309" value="" style="endArrow=classic;html=1;rounded=0;entryX=0.029;entryY=0.971;entryDx=0;entryDy=0;entryPerimeter=0;" edge="1" target="tZiwxAE927Imx5L1TiUG-308" parent="1">
          <mxGeometry width="50" height="50" relative="1" as="geometry">
            <mxPoint x="2332" y="387.5" as="sourcePoint" />
            <mxPoint x="2352" y="377.5" as="targetPoint" />
          </mxGeometry>
        </mxCell>
        <mxCell id="tZiwxAE927Imx5L1TiUG-310" value="32" style="text;html=1;align=center;verticalAlign=middle;whiteSpace=wrap;rounded=0;" vertex="1" parent="1">
          <mxGeometry x="2342" y="387.5" width="30" height="30" as="geometry" />
        </mxCell>
        <mxCell id="tZiwxAE927Imx5L1TiUG-311" value="K&lt;sub&gt;1&lt;/sub&gt;" style="text;html=1;align=center;verticalAlign=middle;whiteSpace=wrap;rounded=0;" vertex="1" parent="1">
          <mxGeometry x="2294.5" y="387.5" width="30" height="30" as="geometry" />
        </mxCell>
        <mxCell id="tZiwxAE927Imx5L1TiUG-312" value="mod 2&lt;sup&gt;32&lt;/sup&gt;" style="text;html=1;align=center;verticalAlign=middle;whiteSpace=wrap;rounded=0;" vertex="1" parent="1">
          <mxGeometry x="2310" y="445" width="50" height="30" as="geometry" />
        </mxCell>
        <mxCell id="tZiwxAE927Imx5L1TiUG-313" value="" style="endArrow=classic;html=1;rounded=0;exitX=0.993;exitY=0.603;exitDx=0;exitDy=0;entryX=0;entryY=0.5;entryDx=0;entryDy=0;exitPerimeter=0;" edge="1" parent="1" source="tZiwxAE927Imx5L1TiUG-289" target="tZiwxAE927Imx5L1TiUG-302">
          <mxGeometry width="50" height="50" relative="1" as="geometry">
            <mxPoint x="2267.5" y="299.74" as="sourcePoint" />
            <mxPoint x="2317.5" y="299.74" as="targetPoint" />
          </mxGeometry>
        </mxCell>
        <mxCell id="tZiwxAE927Imx5L1TiUG-314" value="" style="endArrow=classic;html=1;rounded=0;exitX=1;exitY=0.5;exitDx=0;exitDy=0;entryX=0;entryY=0.5;entryDx=0;entryDy=0;" edge="1" parent="1" source="tZiwxAE927Imx5L1TiUG-291">
          <mxGeometry width="50" height="50" relative="1" as="geometry">
            <mxPoint x="2282" y="437.28" as="sourcePoint" />
            <mxPoint x="2322" y="437.28" as="targetPoint" />
          </mxGeometry>
        </mxCell>
        <mxCell id="tZiwxAE927Imx5L1TiUG-315" value="" style="endArrow=classic;html=1;rounded=0;exitX=1;exitY=0.5;exitDx=0;exitDy=0;" edge="1" parent="1">
          <mxGeometry width="50" height="50" relative="1" as="geometry">
            <mxPoint x="2342" y="299.69" as="sourcePoint" />
            <mxPoint x="2402" y="299.69" as="targetPoint" />
          </mxGeometry>
        </mxCell>
        <mxCell id="tZiwxAE927Imx5L1TiUG-316" value="" style="endArrow=classic;html=1;rounded=0;exitX=1;exitY=0.5;exitDx=0;exitDy=0;" edge="1" parent="1">
          <mxGeometry width="50" height="50" relative="1" as="geometry">
            <mxPoint x="2342" y="437.19" as="sourcePoint" />
            <mxPoint x="2402" y="437.19" as="targetPoint" />
          </mxGeometry>
        </mxCell>
        <mxCell id="tZiwxAE927Imx5L1TiUG-317" value="R" style="text;html=1;align=center;verticalAlign=middle;whiteSpace=wrap;rounded=0;" vertex="1" parent="1">
          <mxGeometry x="2400" y="422.5" width="30" height="30" as="geometry" />
        </mxCell>
        <mxCell id="tZiwxAE927Imx5L1TiUG-318" value="L" style="text;html=1;align=center;verticalAlign=middle;whiteSpace=wrap;rounded=0;" vertex="1" parent="1">
          <mxGeometry x="2400" y="285" width="30" height="30" as="geometry" />
        </mxCell>
        <mxCell id="tZiwxAE927Imx5L1TiUG-319" value="" style="endArrow=classic;html=1;rounded=0;entryX=0.029;entryY=0.971;entryDx=0;entryDy=0;entryPerimeter=0;" edge="1" parent="1">
          <mxGeometry width="50" height="50" relative="1" as="geometry">
            <mxPoint x="2071.89" y="624.99" as="sourcePoint" />
            <mxPoint x="2071.89" y="665.49" as="targetPoint" />
          </mxGeometry>
        </mxCell>
        <mxCell id="tZiwxAE927Imx5L1TiUG-320" value="b0" style="text;html=1;align=center;verticalAlign=middle;whiteSpace=wrap;rounded=0;" vertex="1" parent="1">
          <mxGeometry x="2055" y="595.99" width="30" height="30" as="geometry" />
        </mxCell>
        <mxCell id="tZiwxAE927Imx5L1TiUG-321" value="" style="endArrow=classic;html=1;rounded=0;entryX=0.029;entryY=0.971;entryDx=0;entryDy=0;entryPerimeter=0;" edge="1" parent="1">
          <mxGeometry width="50" height="50" relative="1" as="geometry">
            <mxPoint x="2072.08" y="685" as="sourcePoint" />
            <mxPoint x="2072.08" y="725.5" as="targetPoint" />
          </mxGeometry>
        </mxCell>
        <mxCell id="tZiwxAE927Imx5L1TiUG-322" value="c0" style="text;html=1;align=center;verticalAlign=middle;whiteSpace=wrap;rounded=0;" vertex="1" parent="1">
          <mxGeometry x="2057.5" y="725" width="30" height="30" as="geometry" />
        </mxCell>
        <mxCell id="tZiwxAE927Imx5L1TiUG-323" value="" style="endArrow=classic;html=1;rounded=0;entryX=0;entryY=0.5;entryDx=0;entryDy=0;" edge="1" parent="1" target="tZiwxAE927Imx5L1TiUG-324">
          <mxGeometry width="50" height="50" relative="1" as="geometry">
            <mxPoint x="2070" y="700" as="sourcePoint" />
            <mxPoint x="2142.5" y="700" as="targetPoint" />
          </mxGeometry>
        </mxCell>
        <mxCell id="tZiwxAE927Imx5L1TiUG-324" value="mod 2&lt;sup&gt;5&lt;/sup&gt;" style="rounded=0;whiteSpace=wrap;html=1;" vertex="1" parent="1">
          <mxGeometry x="2122.5" y="687.75" width="60" height="27.25" as="geometry" />
        </mxCell>
        <mxCell id="tZiwxAE927Imx5L1TiUG-325" value="" style="endArrow=classic;html=1;rounded=0;" edge="1" parent="1">
          <mxGeometry width="50" height="50" relative="1" as="geometry">
            <mxPoint x="2182.5" y="701.17" as="sourcePoint" />
            <mxPoint x="2252.5" y="701.17" as="targetPoint" />
          </mxGeometry>
        </mxCell>
        <mxCell id="tZiwxAE927Imx5L1TiUG-326" value="T&lt;sub&gt;V1&lt;/sub&gt;(b1&#39;)" style="rounded=0;whiteSpace=wrap;html=1;" vertex="1" parent="1">
          <mxGeometry x="2252.5" y="687.75" width="60" height="27.25" as="geometry" />
        </mxCell>
        <mxCell id="tZiwxAE927Imx5L1TiUG-327" value="V&lt;sub&gt;1&lt;/sub&gt;" style="text;html=1;align=center;verticalAlign=middle;whiteSpace=wrap;rounded=0;" vertex="1" parent="1">
          <mxGeometry x="2182.5" y="702.75" width="30" height="30" as="geometry" />
        </mxCell>
        <mxCell id="tZiwxAE927Imx5L1TiUG-328" value="" style="shape=orEllipse;perimeter=ellipsePerimeter;whiteSpace=wrap;html=1;backgroundOutline=1;" vertex="1" parent="1">
          <mxGeometry x="2272.5" y="634.12" width="20" height="20" as="geometry" />
        </mxCell>
        <mxCell id="tZiwxAE927Imx5L1TiUG-330" value="8" style="text;html=1;align=center;verticalAlign=middle;whiteSpace=wrap;rounded=0;" vertex="1" parent="1">
          <mxGeometry x="2192.5" y="614.12" width="60" height="30" as="geometry" />
        </mxCell>
        <mxCell id="tZiwxAE927Imx5L1TiUG-331" value="K&lt;sub&gt;1 i&lt;/sub&gt;" style="text;html=1;align=center;verticalAlign=middle;whiteSpace=wrap;rounded=0;" vertex="1" parent="1">
          <mxGeometry x="2175" y="627.75" width="30" height="30" as="geometry" />
        </mxCell>
        <mxCell id="tZiwxAE927Imx5L1TiUG-332" value="" style="endArrow=classic;html=1;rounded=0;entryX=0.029;entryY=0.971;entryDx=0;entryDy=0;entryPerimeter=0;" edge="1" parent="1">
          <mxGeometry width="50" height="50" relative="1" as="geometry">
            <mxPoint x="2281.89" y="594.11" as="sourcePoint" />
            <mxPoint x="2281.89" y="634.61" as="targetPoint" />
          </mxGeometry>
        </mxCell>
        <mxCell id="tZiwxAE927Imx5L1TiUG-333" value="b1" style="text;html=1;align=center;verticalAlign=middle;whiteSpace=wrap;rounded=0;" vertex="1" parent="1">
          <mxGeometry x="2265" y="565.11" width="30" height="30" as="geometry" />
        </mxCell>
        <mxCell id="tZiwxAE927Imx5L1TiUG-334" value="" style="endArrow=classic;html=1;rounded=0;entryX=0;entryY=0.5;entryDx=0;entryDy=0;" edge="1" parent="1" target="tZiwxAE927Imx5L1TiUG-124">
          <mxGeometry width="50" height="50" relative="1" as="geometry">
            <mxPoint x="2012.5" y="675" as="sourcePoint" />
            <mxPoint x="2082.5" y="675" as="targetPoint" />
          </mxGeometry>
        </mxCell>
        <mxCell id="tZiwxAE927Imx5L1TiUG-335" value="" style="endArrow=classic;html=1;rounded=0;entryX=0;entryY=0.5;entryDx=0;entryDy=0;" edge="1" parent="1">
          <mxGeometry width="50" height="50" relative="1" as="geometry">
            <mxPoint x="2202.5" y="644.12" as="sourcePoint" />
            <mxPoint x="2272.5" y="644.12" as="targetPoint" />
          </mxGeometry>
        </mxCell>
        <mxCell id="tZiwxAE927Imx5L1TiUG-336" value="" style="endArrow=classic;html=1;rounded=0;" edge="1" parent="1">
          <mxGeometry width="50" height="50" relative="1" as="geometry">
            <mxPoint x="2282.29" y="654.12" as="sourcePoint" />
            <mxPoint x="2282" y="690" as="targetPoint" />
          </mxGeometry>
        </mxCell>
        <mxCell id="tZiwxAE927Imx5L1TiUG-337" value="" style="endArrow=classic;html=1;rounded=0;entryX=0.583;entryY=-0.114;entryDx=0;entryDy=0;entryPerimeter=0;" edge="1" parent="1" target="tZiwxAE927Imx5L1TiUG-338">
          <mxGeometry width="50" height="50" relative="1" as="geometry">
            <mxPoint x="2279.79" y="715" as="sourcePoint" />
            <mxPoint x="2280" y="770" as="targetPoint" />
          </mxGeometry>
        </mxCell>
        <mxCell id="tZiwxAE927Imx5L1TiUG-338" value="c1" style="text;html=1;align=center;verticalAlign=middle;whiteSpace=wrap;rounded=0;" vertex="1" parent="1">
          <mxGeometry x="2262.5" y="800" width="30" height="30" as="geometry" />
        </mxCell>
        <mxCell id="tZiwxAE927Imx5L1TiUG-339" value="5" style="text;html=1;align=center;verticalAlign=middle;whiteSpace=wrap;rounded=0;" vertex="1" parent="1">
          <mxGeometry x="2192.5" y="672.75" width="30" height="30" as="geometry" />
        </mxCell>
        <mxCell id="tZiwxAE927Imx5L1TiUG-341" value="mod 2&lt;sup&gt;5&lt;/sup&gt;" style="rounded=0;whiteSpace=wrap;html=1;" vertex="1" parent="1">
          <mxGeometry x="2312.5" y="765" width="60" height="27.25" as="geometry" />
        </mxCell>
        <mxCell id="tZiwxAE927Imx5L1TiUG-342" value="" style="endArrow=classic;html=1;rounded=0;" edge="1" parent="1">
          <mxGeometry width="50" height="50" relative="1" as="geometry">
            <mxPoint x="2372.5" y="778.42" as="sourcePoint" />
            <mxPoint x="2442.5" y="778.42" as="targetPoint" />
          </mxGeometry>
        </mxCell>
        <mxCell id="tZiwxAE927Imx5L1TiUG-343" value="V&lt;sub&gt;2&lt;/sub&gt;" style="text;html=1;align=center;verticalAlign=middle;whiteSpace=wrap;rounded=0;" vertex="1" parent="1">
          <mxGeometry x="2372.5" y="780" width="30" height="30" as="geometry" />
        </mxCell>
        <mxCell id="tZiwxAE927Imx5L1TiUG-344" value="5" style="text;html=1;align=center;verticalAlign=middle;whiteSpace=wrap;rounded=0;" vertex="1" parent="1">
          <mxGeometry x="2382.5" y="750" width="30" height="30" as="geometry" />
        </mxCell>
        <mxCell id="tZiwxAE927Imx5L1TiUG-345" value="" style="endArrow=classic;html=1;rounded=0;entryX=0;entryY=0.5;entryDx=0;entryDy=0;" edge="1" parent="1" target="tZiwxAE927Imx5L1TiUG-341">
          <mxGeometry width="50" height="50" relative="1" as="geometry">
            <mxPoint x="2280" y="779" as="sourcePoint" />
            <mxPoint x="2350" y="805" as="targetPoint" />
          </mxGeometry>
        </mxCell>
        <mxCell id="tZiwxAE927Imx5L1TiUG-347" value="" style="edgeStyle=elbowEdgeStyle;elbow=vertical;endArrow=classic;html=1;curved=0;rounded=0;endSize=8;startSize=8;entryX=0.5;entryY=0;entryDx=0;entryDy=0;" edge="1" parent="1" target="tZiwxAE927Imx5L1TiUG-348">
          <mxGeometry width="50" height="50" relative="1" as="geometry">
            <mxPoint x="2230" y="700" as="sourcePoint" />
            <mxPoint x="2440" y="700" as="targetPoint" />
          </mxGeometry>
        </mxCell>
        <mxCell id="tZiwxAE927Imx5L1TiUG-348" value="" style="shape=orEllipse;perimeter=ellipsePerimeter;whiteSpace=wrap;html=1;backgroundOutline=1;" vertex="1" parent="1">
          <mxGeometry x="2427.5" y="768.62" width="20" height="20" as="geometry" />
        </mxCell>
        <mxCell id="tZiwxAE927Imx5L1TiUG-349" value="T&lt;sub&gt;V1&lt;/sub&gt;(b1&#39;)" style="rounded=0;whiteSpace=wrap;html=1;" vertex="1" parent="1">
          <mxGeometry x="2252.5" y="687.75" width="60" height="27.25" as="geometry" />
        </mxCell>
        <mxCell id="tZiwxAE927Imx5L1TiUG-350" value="T&lt;sub&gt;V1&lt;/sub&gt;(b1&#39;)" style="rounded=0;whiteSpace=wrap;html=1;" vertex="1" parent="1">
          <mxGeometry x="2487.5" y="682.64" width="60" height="27.25" as="geometry" />
        </mxCell>
        <mxCell id="tZiwxAE927Imx5L1TiUG-351" value="" style="shape=orEllipse;perimeter=ellipsePerimeter;whiteSpace=wrap;html=1;backgroundOutline=1;" vertex="1" parent="1">
          <mxGeometry x="2507.5" y="629.01" width="20" height="20" as="geometry" />
        </mxCell>
        <mxCell id="tZiwxAE927Imx5L1TiUG-352" value="" style="endArrow=classic;html=1;rounded=0;entryX=0.029;entryY=0.971;entryDx=0;entryDy=0;entryPerimeter=0;" edge="1" parent="1">
          <mxGeometry width="50" height="50" relative="1" as="geometry">
            <mxPoint x="2516.89" y="589" as="sourcePoint" />
            <mxPoint x="2516.89" y="629.5" as="targetPoint" />
          </mxGeometry>
        </mxCell>
        <mxCell id="tZiwxAE927Imx5L1TiUG-353" value="b2" style="text;html=1;align=center;verticalAlign=middle;whiteSpace=wrap;rounded=0;" vertex="1" parent="1">
          <mxGeometry x="2500" y="560" width="30" height="30" as="geometry" />
        </mxCell>
        <mxCell id="tZiwxAE927Imx5L1TiUG-354" value="" style="endArrow=classic;html=1;rounded=0;" edge="1" parent="1">
          <mxGeometry width="50" height="50" relative="1" as="geometry">
            <mxPoint x="2517.29" y="649.01" as="sourcePoint" />
            <mxPoint x="2517" y="684.89" as="targetPoint" />
          </mxGeometry>
        </mxCell>
        <mxCell id="tZiwxAE927Imx5L1TiUG-355" value="" style="endArrow=classic;html=1;rounded=0;entryX=0.583;entryY=-0.114;entryDx=0;entryDy=0;entryPerimeter=0;" edge="1" target="tZiwxAE927Imx5L1TiUG-356" parent="1">
          <mxGeometry width="50" height="50" relative="1" as="geometry">
            <mxPoint x="2514.79" y="709.89" as="sourcePoint" />
            <mxPoint x="2515" y="764.89" as="targetPoint" />
          </mxGeometry>
        </mxCell>
        <mxCell id="tZiwxAE927Imx5L1TiUG-356" value="c2" style="text;html=1;align=center;verticalAlign=middle;whiteSpace=wrap;rounded=0;" vertex="1" parent="1">
          <mxGeometry x="2497.5" y="794.89" width="30" height="30" as="geometry" />
        </mxCell>
        <mxCell id="tZiwxAE927Imx5L1TiUG-357" value="mod 2&lt;sup&gt;5&lt;/sup&gt;" style="rounded=0;whiteSpace=wrap;html=1;" vertex="1" parent="1">
          <mxGeometry x="2547.5" y="759.89" width="60" height="27.25" as="geometry" />
        </mxCell>
        <mxCell id="tZiwxAE927Imx5L1TiUG-358" value="V&lt;sub&gt;3&lt;/sub&gt;" style="text;html=1;align=center;verticalAlign=middle;whiteSpace=wrap;rounded=0;" vertex="1" parent="1">
          <mxGeometry x="2607.5" y="774.89" width="30" height="30" as="geometry" />
        </mxCell>
        <mxCell id="tZiwxAE927Imx5L1TiUG-359" value="5" style="text;html=1;align=center;verticalAlign=middle;whiteSpace=wrap;rounded=0;" vertex="1" parent="1">
          <mxGeometry x="2617.5" y="744.89" width="30" height="30" as="geometry" />
        </mxCell>
        <mxCell id="tZiwxAE927Imx5L1TiUG-360" value="" style="endArrow=classic;html=1;rounded=0;entryX=0;entryY=0.5;entryDx=0;entryDy=0;" edge="1" target="tZiwxAE927Imx5L1TiUG-357" parent="1">
          <mxGeometry width="50" height="50" relative="1" as="geometry">
            <mxPoint x="2515" y="773.89" as="sourcePoint" />
            <mxPoint x="2585" y="799.89" as="targetPoint" />
          </mxGeometry>
        </mxCell>
        <mxCell id="tZiwxAE927Imx5L1TiUG-361" value="T&lt;sub&gt;V2&lt;/sub&gt;(b2&#39;)" style="rounded=0;whiteSpace=wrap;html=1;" vertex="1" parent="1">
          <mxGeometry x="2487.5" y="682.64" width="60" height="27.25" as="geometry" />
        </mxCell>
        <mxCell id="tZiwxAE927Imx5L1TiUG-362" value="" style="edgeStyle=elbowEdgeStyle;elbow=horizontal;endArrow=classic;html=1;curved=0;rounded=0;endSize=8;startSize=8;entryX=0;entryY=0.5;entryDx=0;entryDy=0;" edge="1" parent="1" target="tZiwxAE927Imx5L1TiUG-361">
          <mxGeometry width="50" height="50" relative="1" as="geometry">
            <mxPoint x="2447.5" y="780" as="sourcePoint" />
            <mxPoint x="2497.5" y="730" as="targetPoint" />
          </mxGeometry>
        </mxCell>
        <mxCell id="tZiwxAE927Imx5L1TiUG-363" value="8" style="text;html=1;align=center;verticalAlign=middle;whiteSpace=wrap;rounded=0;" vertex="1" parent="1">
          <mxGeometry x="2427.5" y="608.49" width="60" height="30" as="geometry" />
        </mxCell>
        <mxCell id="tZiwxAE927Imx5L1TiUG-364" value="K&lt;sub&gt;2 i&lt;/sub&gt;" style="text;html=1;align=center;verticalAlign=middle;whiteSpace=wrap;rounded=0;" vertex="1" parent="1">
          <mxGeometry x="2410" y="622.12" width="30" height="30" as="geometry" />
        </mxCell>
        <mxCell id="tZiwxAE927Imx5L1TiUG-365" value="" style="endArrow=classic;html=1;rounded=0;entryX=0;entryY=0.5;entryDx=0;entryDy=0;" edge="1" parent="1">
          <mxGeometry width="50" height="50" relative="1" as="geometry">
            <mxPoint x="2437.5" y="638.49" as="sourcePoint" />
            <mxPoint x="2507.5" y="638.49" as="targetPoint" />
          </mxGeometry>
        </mxCell>
        <mxCell id="tZiwxAE927Imx5L1TiUG-368" value="T&lt;sub&gt;0&lt;/sub&gt;, T&lt;sub&gt;1&lt;/sub&gt;, T&lt;sub&gt;2&lt;/sub&gt;, ... T&lt;sub&gt;14&lt;/sub&gt;,T&lt;sub&gt;15&lt;/sub&gt;|T&lt;sub&gt;16&lt;/sub&gt;,T&lt;sub&gt;17&lt;/sub&gt;, ... T&lt;sub&gt;30&lt;/sub&gt;,T&lt;sub&gt;31&lt;/sub&gt;," style="text;html=1;align=center;verticalAlign=middle;whiteSpace=wrap;rounded=0;" vertex="1" parent="1">
          <mxGeometry x="2412.5" y="490" width="405" height="30" as="geometry" />
        </mxCell>
        <mxCell id="tZiwxAE927Imx5L1TiUG-369" value="" style="shape=curlyBracket;whiteSpace=wrap;html=1;rounded=1;flipH=1;labelPosition=right;verticalLabelPosition=middle;align=left;verticalAlign=middle;direction=south;" vertex="1" parent="1">
          <mxGeometry x="2502.5" y="475" width="112.5" height="20" as="geometry" />
        </mxCell>
        <mxCell id="tZiwxAE927Imx5L1TiUG-370" value="" style="shape=curlyBracket;whiteSpace=wrap;html=1;rounded=1;flipH=1;labelPosition=right;verticalLabelPosition=middle;align=left;verticalAlign=middle;direction=south;" vertex="1" parent="1">
          <mxGeometry x="2619.5" y="475" width="103" height="20" as="geometry" />
        </mxCell>
        <mxCell id="tZiwxAE927Imx5L1TiUG-371" value="Таблицы прямой подстановки" style="text;html=1;align=center;verticalAlign=middle;whiteSpace=wrap;rounded=0;" vertex="1" parent="1">
          <mxGeometry x="2528.5" y="440" width="60" height="30" as="geometry" />
        </mxCell>
        <mxCell id="tZiwxAE927Imx5L1TiUG-372" value="Таблицы обратной подстановки" style="text;html=1;align=center;verticalAlign=middle;whiteSpace=wrap;rounded=0;" vertex="1" parent="1">
          <mxGeometry x="2641" y="440" width="60" height="30" as="geometry" />
        </mxCell>
        <mxCell id="tZiwxAE927Imx5L1TiUG-373" value="" style="shape=orEllipse;perimeter=ellipsePerimeter;whiteSpace=wrap;html=1;backgroundOutline=1;" vertex="1" parent="1">
          <mxGeometry x="2122.5" y="981.61" width="20" height="20" as="geometry" />
        </mxCell>
        <mxCell id="tZiwxAE927Imx5L1TiUG-374" value="8" style="text;html=1;align=center;verticalAlign=middle;whiteSpace=wrap;rounded=0;" vertex="1" parent="1">
          <mxGeometry x="2075" y="959.36" width="30" height="30" as="geometry" />
        </mxCell>
        <mxCell id="tZiwxAE927Imx5L1TiUG-375" value="8" style="text;html=1;align=center;verticalAlign=middle;whiteSpace=wrap;rounded=0;" vertex="1" parent="1">
          <mxGeometry x="2100.5" y="1011.61" width="30" height="30" as="geometry" />
        </mxCell>
        <mxCell id="tZiwxAE927Imx5L1TiUG-376" value="K&lt;sub&gt;0 i&lt;/sub&gt;" style="text;html=1;align=center;verticalAlign=middle;whiteSpace=wrap;rounded=0;" vertex="1" parent="1">
          <mxGeometry x="2045" y="974.36" width="30" height="30" as="geometry" />
        </mxCell>
        <mxCell id="tZiwxAE927Imx5L1TiUG-377" value="" style="endArrow=classic;html=1;rounded=0;entryX=0.029;entryY=0.971;entryDx=0;entryDy=0;entryPerimeter=0;" edge="1" parent="1">
          <mxGeometry width="50" height="50" relative="1" as="geometry">
            <mxPoint x="2131.89" y="941.6" as="sourcePoint" />
            <mxPoint x="2131.89" y="982.1" as="targetPoint" />
          </mxGeometry>
        </mxCell>
        <mxCell id="tZiwxAE927Imx5L1TiUG-403" value="" style="edgeStyle=orthogonalEdgeStyle;rounded=0;orthogonalLoop=1;jettySize=auto;html=1;" edge="1" parent="1" source="tZiwxAE927Imx5L1TiUG-378" target="tZiwxAE927Imx5L1TiUG-398">
          <mxGeometry relative="1" as="geometry" />
        </mxCell>
        <mxCell id="tZiwxAE927Imx5L1TiUG-378" value="c1" style="text;html=1;align=center;verticalAlign=middle;whiteSpace=wrap;rounded=0;" vertex="1" parent="1">
          <mxGeometry x="2375" y="896.61" width="30" height="30" as="geometry" />
        </mxCell>
        <mxCell id="tZiwxAE927Imx5L1TiUG-379" value="" style="endArrow=classic;html=1;rounded=0;entryX=0.029;entryY=0.971;entryDx=0;entryDy=0;entryPerimeter=0;" edge="1" parent="1">
          <mxGeometry width="50" height="50" relative="1" as="geometry">
            <mxPoint x="2132.08" y="1001.61" as="sourcePoint" />
            <mxPoint x="2132.08" y="1042.11" as="targetPoint" />
          </mxGeometry>
        </mxCell>
        <mxCell id="tZiwxAE927Imx5L1TiUG-380" value="b0" style="text;html=1;align=center;verticalAlign=middle;whiteSpace=wrap;rounded=0;" vertex="1" parent="1">
          <mxGeometry x="2117.5" y="1041.61" width="30" height="30" as="geometry" />
        </mxCell>
        <mxCell id="tZiwxAE927Imx5L1TiUG-381" value="" style="endArrow=classic;html=1;rounded=0;" edge="1" parent="1">
          <mxGeometry width="50" height="50" relative="1" as="geometry">
            <mxPoint x="2131.25" y="961.72" as="sourcePoint" />
            <mxPoint x="2182.5" y="961.72" as="targetPoint" />
          </mxGeometry>
        </mxCell>
        <mxCell id="tZiwxAE927Imx5L1TiUG-385" value="V&lt;sub&gt;1&lt;/sub&gt;" style="text;html=1;align=center;verticalAlign=middle;whiteSpace=wrap;rounded=0;" vertex="1" parent="1">
          <mxGeometry x="2245" y="966.61" width="30" height="30" as="geometry" />
        </mxCell>
        <mxCell id="tZiwxAE927Imx5L1TiUG-386" value="" style="shape=orEllipse;perimeter=ellipsePerimeter;whiteSpace=wrap;html=1;backgroundOutline=1;" vertex="1" parent="1">
          <mxGeometry x="2383.25" y="1013.87" width="20" height="20" as="geometry" />
        </mxCell>
        <mxCell id="tZiwxAE927Imx5L1TiUG-387" value="8" style="text;html=1;align=center;verticalAlign=middle;whiteSpace=wrap;rounded=0;" vertex="1" parent="1">
          <mxGeometry x="2355.25" y="996.61" width="24.25" height="30" as="geometry" />
        </mxCell>
        <mxCell id="tZiwxAE927Imx5L1TiUG-388" value="K&lt;sub&gt;1 i&lt;/sub&gt;" style="text;html=1;align=center;verticalAlign=middle;whiteSpace=wrap;rounded=0;" vertex="1" parent="1">
          <mxGeometry x="2314.5" y="1011.61" width="30" height="30" as="geometry" />
        </mxCell>
        <mxCell id="tZiwxAE927Imx5L1TiUG-389" value="" style="endArrow=classic;html=1;rounded=0;entryX=0.029;entryY=0.971;entryDx=0;entryDy=0;entryPerimeter=0;" edge="1" parent="1">
          <mxGeometry width="50" height="50" relative="1" as="geometry">
            <mxPoint x="2392.64" y="973.86" as="sourcePoint" />
            <mxPoint x="2392.64" y="1014.36" as="targetPoint" />
          </mxGeometry>
        </mxCell>
        <mxCell id="tZiwxAE927Imx5L1TiUG-390" value="b1" style="text;html=1;align=center;verticalAlign=middle;whiteSpace=wrap;rounded=0;" vertex="1" parent="1">
          <mxGeometry x="2377.5" y="1071.61" width="30" height="30" as="geometry" />
        </mxCell>
        <mxCell id="tZiwxAE927Imx5L1TiUG-391" value="" style="endArrow=classic;html=1;rounded=0;entryX=0;entryY=0.5;entryDx=0;entryDy=0;" edge="1" target="tZiwxAE927Imx5L1TiUG-373" parent="1">
          <mxGeometry width="50" height="50" relative="1" as="geometry">
            <mxPoint x="2072.5" y="991.61" as="sourcePoint" />
            <mxPoint x="2142.5" y="991.61" as="targetPoint" />
          </mxGeometry>
        </mxCell>
        <mxCell id="tZiwxAE927Imx5L1TiUG-392" value="" style="endArrow=classic;html=1;rounded=0;entryX=0;entryY=0.5;entryDx=0;entryDy=0;" edge="1" parent="1">
          <mxGeometry width="50" height="50" relative="1" as="geometry">
            <mxPoint x="2337.5" y="1023.61" as="sourcePoint" />
            <mxPoint x="2383.25" y="1023.87" as="targetPoint" />
          </mxGeometry>
        </mxCell>
        <mxCell id="tZiwxAE927Imx5L1TiUG-393" value="" style="endArrow=classic;html=1;rounded=0;" edge="1" parent="1">
          <mxGeometry width="50" height="50" relative="1" as="geometry">
            <mxPoint x="2393.04" y="1033.87" as="sourcePoint" />
            <mxPoint x="2392.75" y="1069.7499999999998" as="targetPoint" />
          </mxGeometry>
        </mxCell>
        <mxCell id="tZiwxAE927Imx5L1TiUG-396" value="5" style="text;html=1;align=center;verticalAlign=middle;whiteSpace=wrap;rounded=0;" vertex="1" parent="1">
          <mxGeometry x="2242.5" y="926.61" width="30" height="30" as="geometry" />
        </mxCell>
        <mxCell id="tZiwxAE927Imx5L1TiUG-398" value="T&lt;sub&gt;V1&#39;(обр)&lt;/sub&gt;(c1)" style="rounded=0;whiteSpace=wrap;html=1;" vertex="1" parent="1">
          <mxGeometry x="2352.5" y="947" width="75" height="27.25" as="geometry" />
        </mxCell>
        <mxCell id="tZiwxAE927Imx5L1TiUG-401" value="" style="edgeStyle=orthogonalEdgeStyle;rounded=0;orthogonalLoop=1;jettySize=auto;html=1;" edge="1" parent="1" source="tZiwxAE927Imx5L1TiUG-399" target="tZiwxAE927Imx5L1TiUG-400">
          <mxGeometry relative="1" as="geometry" />
        </mxCell>
        <mxCell id="tZiwxAE927Imx5L1TiUG-399" value="mod 2&lt;sup&gt;5&lt;/sup&gt;" style="rounded=0;whiteSpace=wrap;html=1;" vertex="1" parent="1">
          <mxGeometry x="2182.5" y="946.61" width="60" height="27.25" as="geometry" />
        </mxCell>
        <mxCell id="tZiwxAE927Imx5L1TiUG-406" value="" style="edgeStyle=orthogonalEdgeStyle;rounded=0;orthogonalLoop=1;jettySize=auto;html=1;" edge="1" parent="1" source="tZiwxAE927Imx5L1TiUG-400" target="tZiwxAE927Imx5L1TiUG-398">
          <mxGeometry relative="1" as="geometry" />
        </mxCell>
        <mxCell id="tZiwxAE927Imx5L1TiUG-400" value="31-V1" style="rounded=0;whiteSpace=wrap;html=1;" vertex="1" parent="1">
          <mxGeometry x="2272.5" y="946.61" width="60" height="27.25" as="geometry" />
        </mxCell>
        <mxCell id="tZiwxAE927Imx5L1TiUG-402" value="V&lt;sub&gt;1&lt;/sub&gt;&#39;" style="text;html=1;align=center;verticalAlign=middle;whiteSpace=wrap;rounded=0;" vertex="1" parent="1">
          <mxGeometry x="2329.5" y="966.61" width="30" height="30" as="geometry" />
        </mxCell>
        <mxCell id="tZiwxAE927Imx5L1TiUG-404" value="8" style="text;html=1;align=center;verticalAlign=middle;whiteSpace=wrap;rounded=0;" vertex="1" parent="1">
          <mxGeometry x="2359.5" y="915" width="20" height="30" as="geometry" />
        </mxCell>
        <mxCell id="tZiwxAE927Imx5L1TiUG-407" value="c0" style="text;html=1;align=center;verticalAlign=middle;whiteSpace=wrap;rounded=0;" vertex="1" parent="1">
          <mxGeometry x="2117.5" y="916.61" width="30" height="30" as="geometry" />
        </mxCell>
        <mxCell id="tZiwxAE927Imx5L1TiUG-409" value="" style="endArrow=classic;html=1;rounded=0;" edge="1" parent="1">
          <mxGeometry width="50" height="50" relative="1" as="geometry">
            <mxPoint x="2387.5" y="931.61" as="sourcePoint" />
            <mxPoint x="2455" y="931.49" as="targetPoint" />
          </mxGeometry>
        </mxCell>
        <mxCell id="tZiwxAE927Imx5L1TiUG-410" value="" style="edgeStyle=orthogonalEdgeStyle;rounded=0;orthogonalLoop=1;jettySize=auto;html=1;" edge="1" source="tZiwxAE927Imx5L1TiUG-411" target="tZiwxAE927Imx5L1TiUG-413" parent="1">
          <mxGeometry relative="1" as="geometry" />
        </mxCell>
        <mxCell id="tZiwxAE927Imx5L1TiUG-411" value="mod 2&lt;sup&gt;5&lt;/sup&gt;" style="rounded=0;whiteSpace=wrap;html=1;" vertex="1" parent="1">
          <mxGeometry x="2454.94" y="917.99" width="60" height="27.25" as="geometry" />
        </mxCell>
        <mxCell id="tZiwxAE927Imx5L1TiUG-413" value="31-V1" style="rounded=0;whiteSpace=wrap;html=1;" vertex="1" parent="1">
          <mxGeometry x="2600" y="917.75" width="60" height="27.25" as="geometry" />
        </mxCell>
        <mxCell id="tZiwxAE927Imx5L1TiUG-417" value="" style="shape=orEllipse;perimeter=ellipsePerimeter;whiteSpace=wrap;html=1;backgroundOutline=1;" vertex="1" parent="1">
          <mxGeometry x="2547.5" y="921.62" width="20" height="20" as="geometry" />
        </mxCell>
        <mxCell id="tZiwxAE927Imx5L1TiUG-418" value="" style="endArrow=classic;html=1;rounded=0;" edge="1" parent="1">
          <mxGeometry width="50" height="50" relative="1" as="geometry">
            <mxPoint x="2257.5" y="961.61" as="sourcePoint" />
            <mxPoint x="2557.5" y="921.61" as="targetPoint" />
            <Array as="points">
              <mxPoint x="2257.5" y="891.61" />
              <mxPoint x="2557.5" y="891.61" />
            </Array>
          </mxGeometry>
        </mxCell>
        <mxCell id="tZiwxAE927Imx5L1TiUG-419" value="V&lt;sub&gt;1&lt;/sub&gt;" style="text;html=1;align=center;verticalAlign=middle;whiteSpace=wrap;rounded=0;" vertex="1" parent="1">
          <mxGeometry x="2555" y="885" width="30" height="30" as="geometry" />
        </mxCell>
        <mxCell id="tZiwxAE927Imx5L1TiUG-420" value="V&lt;sub&gt;2&lt;/sub&gt;" style="text;html=1;align=center;verticalAlign=middle;whiteSpace=wrap;rounded=0;" vertex="1" parent="1">
          <mxGeometry x="2577.5" y="936.61" width="30" height="30" as="geometry" />
        </mxCell>
        <mxCell id="tZiwxAE927Imx5L1TiUG-421" value="" style="shape=orEllipse;perimeter=ellipsePerimeter;whiteSpace=wrap;html=1;backgroundOutline=1;" vertex="1" parent="1">
          <mxGeometry x="2713.75" y="986.68" width="20" height="20" as="geometry" />
        </mxCell>
        <mxCell id="tZiwxAE927Imx5L1TiUG-422" value="8" style="text;html=1;align=center;verticalAlign=middle;whiteSpace=wrap;rounded=0;" vertex="1" parent="1">
          <mxGeometry x="2685.75" y="969.42" width="24.25" height="30" as="geometry" />
        </mxCell>
        <mxCell id="tZiwxAE927Imx5L1TiUG-423" value="K&lt;sub&gt;2 i&lt;/sub&gt;" style="text;html=1;align=center;verticalAlign=middle;whiteSpace=wrap;rounded=0;" vertex="1" parent="1">
          <mxGeometry x="2645" y="984.42" width="30" height="30" as="geometry" />
        </mxCell>
        <mxCell id="tZiwxAE927Imx5L1TiUG-424" value="" style="endArrow=classic;html=1;rounded=0;entryX=0.029;entryY=0.971;entryDx=0;entryDy=0;entryPerimeter=0;" edge="1" parent="1">
          <mxGeometry width="50" height="50" relative="1" as="geometry">
            <mxPoint x="2723.14" y="946.67" as="sourcePoint" />
            <mxPoint x="2723.14" y="987.17" as="targetPoint" />
          </mxGeometry>
        </mxCell>
        <mxCell id="tZiwxAE927Imx5L1TiUG-425" value="b2" style="text;html=1;align=center;verticalAlign=middle;whiteSpace=wrap;rounded=0;" vertex="1" parent="1">
          <mxGeometry x="2708" y="1044.4199999999998" width="30" height="30" as="geometry" />
        </mxCell>
        <mxCell id="tZiwxAE927Imx5L1TiUG-426" value="" style="endArrow=classic;html=1;rounded=0;entryX=0;entryY=0.5;entryDx=0;entryDy=0;" edge="1" parent="1">
          <mxGeometry width="50" height="50" relative="1" as="geometry">
            <mxPoint x="2668" y="996.42" as="sourcePoint" />
            <mxPoint x="2713.75" y="996.68" as="targetPoint" />
          </mxGeometry>
        </mxCell>
        <mxCell id="tZiwxAE927Imx5L1TiUG-427" value="" style="endArrow=classic;html=1;rounded=0;" edge="1" parent="1">
          <mxGeometry width="50" height="50" relative="1" as="geometry">
            <mxPoint x="2723.54" y="1006.68" as="sourcePoint" />
            <mxPoint x="2723.25" y="1042.5599999999997" as="targetPoint" />
          </mxGeometry>
        </mxCell>
        <mxCell id="tZiwxAE927Imx5L1TiUG-428" value="T&lt;sub&gt;V1&#39;(обр)&lt;/sub&gt;(c1)" style="rounded=0;whiteSpace=wrap;html=1;" vertex="1" parent="1">
          <mxGeometry x="2683" y="919.81" width="75" height="27.25" as="geometry" />
        </mxCell>
        <mxCell id="tZiwxAE927Imx5L1TiUG-429" value="" style="edgeStyle=orthogonalEdgeStyle;rounded=0;orthogonalLoop=1;jettySize=auto;html=1;exitX=0.958;exitY=0.577;exitDx=0;exitDy=0;exitPerimeter=0;" edge="1" target="tZiwxAE927Imx5L1TiUG-428" parent="1" source="tZiwxAE927Imx5L1TiUG-413">
          <mxGeometry relative="1" as="geometry">
            <mxPoint x="2663" y="933.42" as="sourcePoint" />
          </mxGeometry>
        </mxCell>
        <mxCell id="tZiwxAE927Imx5L1TiUG-430" value="V&lt;sub&gt;2&lt;/sub&gt;&#39;" style="text;html=1;align=center;verticalAlign=middle;whiteSpace=wrap;rounded=0;" vertex="1" parent="1">
          <mxGeometry x="2660" y="939.42" width="30" height="30" as="geometry" />
        </mxCell>
        <mxCell id="tZiwxAE927Imx5L1TiUG-432" value="c1" style="text;html=1;align=center;verticalAlign=middle;whiteSpace=wrap;rounded=0;" vertex="1" parent="1">
          <mxGeometry x="2705.5" y="855" width="30" height="30" as="geometry" />
        </mxCell>
        <mxCell id="tZiwxAE927Imx5L1TiUG-435" value="" style="endArrow=classic;html=1;rounded=0;exitX=0.5;exitY=1;exitDx=0;exitDy=0;entryX=0.5;entryY=0;entryDx=0;entryDy=0;" edge="1" parent="1" target="tZiwxAE927Imx5L1TiUG-428">
          <mxGeometry width="50" height="50" relative="1" as="geometry">
            <mxPoint x="2720.5" y="884.9999999999999" as="sourcePoint" />
            <mxPoint x="2797.5" y="891.61" as="targetPoint" />
          </mxGeometry>
        </mxCell>
      </root>
    </mxGraphModel>
  </diagram>
</mxfile>
